<svg width="213" height="96" viewBox="0 0 213 96" fill="none" xmlns="http://www.w3.org/2000/svg">
<path d="M187.022 76.0002C184.747 76.0002 183.01 75.337 181.808 74.0106C180.633 72.6842 180.045 70.7073 180.045 68.08V58.438C180.045 55.7851 180.633 53.7955 181.808 52.4691C183.01 51.1427 184.747 50.4795 187.022 50.4795C189.271 50.4795 190.996 51.1427 192.198 52.4691C193.399 53.7955 193.999 55.7851 193.999 58.438V68.08C193.999 70.7073 193.399 72.6842 192.198 74.0106C190.996 75.337 189.271 76.0002 187.022 76.0002ZM187.022 72.3271C188.019 72.3271 188.76 71.9827 189.246 71.294C189.757 70.6053 190.012 69.4702 190.012 67.8887V58.6293C190.012 57.0223 189.757 55.8744 189.246 55.1857C188.76 54.497 188.019 54.1526 187.022 54.1526C186.025 54.1526 185.271 54.497 184.76 55.1857C184.275 55.8744 184.032 57.0223 184.032 58.6293V67.8887C184.032 69.4702 184.275 70.6053 184.76 71.294C185.271 71.9827 186.025 72.3271 187.022 72.3271Z" fill="#ADADAD"/>
<path d="M165.387 75.7706C165.105 75.7706 164.965 75.6303 164.965 75.3497V51.1299C164.965 50.8493 165.105 50.709 165.387 50.709H170.294C172.543 50.709 174.217 51.2319 175.316 52.2777C176.415 53.298 176.964 54.854 176.964 56.9457C176.964 58.2721 176.721 59.3944 176.236 60.3127C175.75 61.231 175.009 61.958 174.012 62.4937V62.5702C175.213 62.9528 176.121 63.6543 176.734 64.6746C177.373 65.6949 177.692 66.9958 177.692 68.5773C177.692 70.9751 177.105 72.7734 175.929 73.9722C174.779 75.1711 173.015 75.7706 170.639 75.7706H165.387ZM168.99 72.327H170.6C171.648 72.327 172.428 71.9954 172.939 71.3322C173.475 70.669 173.744 69.6614 173.744 68.3095C173.744 67.0341 173.475 66.0775 172.939 65.4398C172.428 64.8021 171.661 64.4833 170.639 64.4833H168.99V72.327ZM168.99 61.3075H170.37C171.239 61.3075 171.891 60.9887 172.325 60.351C172.785 59.7133 173.015 58.7823 173.015 57.5579C173.015 56.359 172.798 55.4917 172.364 54.9561C171.929 54.4204 171.239 54.1526 170.294 54.1526H168.99V61.3075Z" fill="#ADADAD"/>
<path d="M154.717 75.7706C154.487 75.7706 154.372 75.6303 154.372 75.3497V54.3439H150.385C150.13 54.3439 150.002 54.2036 150.002 53.923V51.1299C150.002 50.8493 150.13 50.709 150.385 50.709H162.385C162.615 50.709 162.73 50.8493 162.73 51.1299V53.923C162.73 54.2036 162.615 54.3439 162.385 54.3439H158.398V75.3497C158.398 75.6303 158.27 75.7706 158.014 75.7706H154.717Z" fill="#ADADAD"/>
<path d="M141.424 76.0002C139.15 76.0002 137.412 75.337 136.211 74.0106C135.035 72.6587 134.447 70.567 134.447 67.7356V58.7441C134.447 55.9892 135.035 53.9231 136.211 52.5456C137.412 51.1682 139.15 50.4795 141.424 50.4795C143.009 50.4795 144.338 50.8366 145.411 51.5508C146.485 52.265 147.252 53.2726 147.712 54.5735C148.197 55.8744 148.338 57.4049 148.133 59.165C148.082 59.42 147.967 59.5476 147.788 59.5476H144.453C144.197 59.5476 144.095 59.4073 144.146 59.1267C144.274 57.4942 144.121 56.257 143.686 55.4153C143.252 54.5735 142.485 54.1526 141.386 54.1526C140.389 54.1526 139.648 54.5225 139.163 55.2622C138.677 56.002 138.434 57.2136 138.434 58.8971V67.5061C138.434 69.2406 138.677 70.4777 139.163 71.2175C139.674 71.9572 140.428 72.3271 141.424 72.3271C142.575 72.3271 143.341 71.8807 143.725 70.9879C144.108 70.0696 144.261 68.858 144.185 67.353C144.159 67.0469 144.261 66.8939 144.491 66.8939H147.75C147.98 66.8939 148.121 67.0469 148.172 67.353C148.376 70.0313 147.903 72.1485 146.753 73.7045C145.629 75.235 143.852 76.0002 141.424 76.0002Z" fill="#ADADAD"/>
<path d="M120.534 75.7701C120.304 75.7701 120.189 75.6298 120.189 75.3492V51.1294C120.189 50.8488 120.304 50.7085 120.534 50.7085H125.25C127.652 50.7085 129.416 51.3589 130.54 52.6599C131.69 53.9608 132.265 56.0014 132.265 58.7818C132.265 61.3581 131.678 63.3349 130.502 64.7124C129.352 66.0898 127.652 66.7785 125.403 66.7785H124.215V75.3492C124.215 75.6298 124.1 75.7701 123.87 75.7701H120.534ZM124.215 63.1436H125.25C126.298 63.1436 127.052 62.7865 127.512 62.0723C127.997 61.3581 128.24 60.274 128.24 58.82C128.24 57.213 127.997 56.0652 127.512 55.3765C127.052 54.6877 126.323 54.3434 125.327 54.3434H124.215V63.1436Z" fill="#ADADAD"/>
<path d="M110.237 76.0002C107.962 76.0002 106.224 75.337 105.023 74.0106C103.848 72.6842 103.26 70.7073 103.26 68.08V58.438C103.26 55.7851 103.848 53.7955 105.023 52.4691C106.224 51.1427 107.962 50.4795 110.237 50.4795C112.486 50.4795 114.211 51.1427 115.412 52.4691C116.614 53.7955 117.214 55.7851 117.214 58.438V68.08C117.214 70.7073 116.614 72.6842 115.412 74.0106C114.211 75.337 112.486 76.0002 110.237 76.0002ZM110.237 72.3271C111.234 72.3271 111.975 71.9827 112.46 71.294C112.972 70.6053 113.227 69.4702 113.227 67.8887V58.6293C113.227 57.0223 112.972 55.8744 112.46 55.1857C111.975 54.497 111.234 54.1526 110.237 54.1526C109.24 54.1526 108.486 54.497 107.975 55.1857C107.49 55.8744 107.247 57.0223 107.247 58.6293V67.8887C107.247 69.4702 107.49 70.6053 107.975 71.294C108.486 71.9827 109.24 72.3271 110.237 72.3271Z" fill="#ADADAD"/>
<path d="M93.9909 76.0002C91.7162 76.0002 89.9783 75.337 88.7771 74.0106C87.6015 72.6587 87.0137 70.567 87.0137 67.7356V58.7441C87.0137 55.9892 87.6015 53.9231 88.7771 52.5456C89.9783 51.1682 91.7162 50.4795 93.9909 50.4795C95.5754 50.4795 96.9044 50.8366 97.9778 51.5508C99.0512 52.265 99.818 53.2726 100.278 54.5735C100.764 55.8744 100.904 57.4049 100.7 59.165C100.649 59.42 100.534 59.5476 100.355 59.5476H97.0194C96.7638 59.5476 96.6616 59.4073 96.7127 59.1267C96.8405 57.4942 96.6872 56.257 96.2527 55.4153C95.8182 54.5735 95.0515 54.1526 93.9525 54.1526C92.9558 54.1526 92.2146 54.5225 91.729 55.2622C91.2434 56.002 91.0006 57.2136 91.0006 58.8971V67.5061C91.0006 69.2406 91.2434 70.4777 91.729 71.2175C92.2402 71.9572 92.9941 72.3271 93.9909 72.3271C95.1409 72.3271 95.9077 71.8807 96.291 70.9879C96.6744 70.0696 96.8277 68.858 96.7511 67.353C96.7255 67.0469 96.8277 66.8939 97.0577 66.8939H100.316C100.546 66.8939 100.687 67.0469 100.738 67.353C100.942 70.0313 100.47 72.1485 99.3196 73.7045C98.1951 75.235 96.4188 76.0002 93.9909 76.0002Z" fill="#ADADAD"/>
<path d="M70.6685 75.7706C70.4129 75.7706 70.2852 75.6303 70.2852 75.3497V51.1299C70.2852 50.8493 70.4129 50.709 70.6685 50.709H73.9271C74.1827 50.709 74.3105 50.8493 74.3105 51.1299V61.1545H80.0225V51.1299C80.0225 50.8493 80.1376 50.709 80.3676 50.709H83.6261C83.8817 50.709 84.0095 50.8493 84.0095 51.1299V75.3497C84.0095 75.6303 83.8817 75.7706 83.6261 75.7706H80.3676C80.1376 75.7706 80.0225 75.6303 80.0225 75.3497V64.7511H74.3105V75.3497C74.3105 75.6303 74.1827 75.7706 73.9271 75.7706H70.6685Z" fill="#ADADAD"/>
<path d="M60.3327 76.0002C58.058 76.0002 56.3201 75.337 55.1189 74.0106C53.9433 72.6842 53.3555 70.7073 53.3555 68.08V58.438C53.3555 55.7851 53.9433 53.7955 55.1189 52.4691C56.3201 51.1427 58.058 50.4795 60.3327 50.4795C62.5817 50.4795 64.3068 51.1427 65.508 52.4691C66.7092 53.7955 67.3098 55.7851 67.3098 58.438V68.08C67.3098 70.7073 66.7092 72.6842 65.508 74.0106C64.3068 75.337 62.5817 76.0002 60.3327 76.0002ZM60.3327 72.3271C61.3294 72.3271 62.0706 71.9827 62.5562 71.294C63.0673 70.6053 63.3229 69.4702 63.3229 67.8887V58.6293C63.3229 57.0223 63.0673 55.8744 62.5562 55.1857C62.0706 54.497 61.3294 54.1526 60.3327 54.1526C59.3359 54.1526 58.582 54.497 58.0708 55.1857C57.5852 55.8744 57.3424 57.0223 57.3424 58.6293V67.8887C57.3424 69.4702 57.5852 70.6053 58.0708 71.294C58.582 71.9827 59.3359 72.3271 60.3327 72.3271Z" fill="#ADADAD"/>
<path d="M37.0481 75.7706C36.8181 75.7706 36.7031 75.6303 36.7031 75.3497V51.1299C36.7031 50.8493 36.8309 50.709 37.0865 50.709H49.9674C50.223 50.709 50.3508 50.8493 50.3508 51.1299V75.3497C50.3508 75.6303 50.223 75.7706 49.9674 75.7706H46.7089C46.4533 75.7706 46.3255 75.6303 46.3255 75.3497V54.3439H40.7284V75.3114C40.7284 75.6175 40.6134 75.7706 40.3834 75.7706H37.0481Z" fill="#ADADAD"/>
<path d="M26.9772 75.9997C24.7026 75.9997 22.9647 75.3365 21.7635 74.0101C20.5878 72.6582 20 70.5665 20 67.7351V58.7436C20 55.9887 20.5878 53.9226 21.7635 52.5451C22.9647 51.1677 24.7026 50.479 26.9772 50.479C28.5617 50.479 29.8907 50.8361 30.9641 51.5503C32.0376 52.2646 32.8043 53.2721 33.2643 54.573C33.7499 55.8739 33.8905 57.4044 33.686 59.1645C33.6349 59.4195 33.5199 59.5471 33.341 59.5471H30.0057C29.7502 59.5471 29.6479 59.4068 29.6991 59.1262C29.8268 57.4937 29.6735 56.2566 29.239 55.4148C28.8045 54.573 28.0378 54.1521 26.9388 54.1521C25.9421 54.1521 25.2009 54.522 24.7154 55.2617C24.2298 56.0015 23.987 57.2131 23.987 58.8966V67.5056C23.987 69.2401 24.2298 70.4773 24.7154 71.217C25.2265 71.9567 25.9804 72.3266 26.9772 72.3266C28.1273 72.3266 28.894 71.8802 29.2774 70.9874C29.6607 70.0691 29.8141 68.8575 29.7374 67.3525C29.7118 67.0464 29.8141 66.8934 30.0441 66.8934H33.3027C33.5327 66.8934 33.6732 67.0464 33.7244 67.3525C33.9288 70.0309 33.456 72.148 32.3059 73.704C31.1814 75.2345 29.4051 75.9997 26.9772 75.9997Z" fill="#ADADAD"/>
<path d="M174.278 42.2911C174.022 42.2911 173.895 42.1508 173.895 41.8702V17.6504C173.895 17.3698 174.01 17.2295 174.24 17.2295H184.437C184.667 17.2295 184.782 17.3698 184.782 17.6504V20.4435C184.782 20.7241 184.667 20.8644 184.437 20.8644H177.92V27.8281H183.862C184.092 27.8281 184.207 27.9683 184.207 28.2489V30.889C184.207 31.1696 184.092 31.3099 183.862 31.3099H177.92V38.6562H184.437C184.667 38.6562 184.782 38.7965 184.782 39.0771V41.8702C184.782 42.1508 184.667 42.2911 184.437 42.2911H174.278Z" fill="#ADADAD"/>
<path d="M163.942 42.5207C161.667 42.5207 159.93 41.8575 158.728 40.5311C157.553 39.2047 156.965 37.2278 156.965 34.6005V24.9585C156.965 22.3057 157.553 20.316 158.728 18.9896C159.93 17.6632 161.667 17 163.942 17C166.191 17 167.916 17.6632 169.117 18.9896C170.319 20.316 170.919 22.3057 170.919 24.9585V34.6005C170.919 37.2278 170.319 39.2047 169.117 40.5311C167.916 41.8575 166.191 42.5207 163.942 42.5207ZM163.942 38.8476C164.939 38.8476 165.68 38.5032 166.166 37.8145C166.677 37.1258 166.932 35.9907 166.932 34.4092V25.1498C166.932 23.5428 166.677 22.3949 166.166 21.7062C165.68 21.0175 164.939 20.6731 163.942 20.6731C162.945 20.6731 162.191 21.0175 161.68 21.7062C161.195 22.3949 160.952 23.5428 160.952 25.1498V34.4092C160.952 35.9907 161.195 37.1258 161.68 37.8145C162.191 38.5032 162.945 38.8476 163.942 38.8476Z" fill="#ADADAD"/>
<path d="M140.622 42.2911C140.366 42.2911 140.238 42.1508 140.238 41.8702V17.6504C140.238 17.3698 140.366 17.2295 140.622 17.2295H143.88C144.136 17.2295 144.264 17.3698 144.264 17.6504V27.675H149.976V17.6504C149.976 17.3698 150.091 17.2295 150.321 17.2295H153.579C153.835 17.2295 153.963 17.3698 153.963 17.6504V41.8702C153.963 42.1508 153.835 42.2911 153.579 42.2911H150.321C150.091 42.2911 149.976 42.1508 149.976 41.8702V31.2716H144.264V41.8702C144.264 42.1508 144.136 42.2911 143.88 42.2911H140.622Z" fill="#ADADAD"/>
<path d="M125.31 42.2911C125.029 42.2911 124.889 42.1508 124.889 41.8702V17.6504C124.889 17.3698 125.029 17.2295 125.31 17.2295H130.217C132.466 17.2295 134.14 17.7524 135.239 18.7982C136.338 19.8186 136.888 21.3745 136.888 23.4662C136.888 24.7926 136.645 25.915 136.16 26.8332C135.674 27.7515 134.933 28.4785 133.936 29.0142V29.0907C135.137 29.4733 136.044 30.1748 136.658 31.1951C137.297 32.2154 137.616 33.5163 137.616 35.0978C137.616 37.4956 137.028 39.2939 135.853 40.4928C134.703 41.6916 132.939 42.2911 130.562 42.2911H125.31ZM128.914 38.8475H130.524C131.572 38.8475 132.351 38.5159 132.863 37.8527C133.399 37.1895 133.668 36.1819 133.668 34.83C133.668 33.5546 133.399 32.598 132.863 31.9603C132.351 31.3226 131.585 31.0038 130.562 31.0038H128.914V38.8475ZM128.914 27.8281H130.294C131.163 27.8281 131.815 27.5092 132.249 26.8715C132.709 26.2338 132.939 25.3028 132.939 24.0784C132.939 22.8795 132.722 22.0122 132.288 21.4766C131.853 20.9409 131.163 20.6731 130.217 20.6731H128.914V27.8281Z" fill="#ADADAD"/>
<path d="M108.311 42.2911C108.056 42.2911 107.928 42.1508 107.928 41.8702V17.6504C107.928 17.3698 108.056 17.2295 108.311 17.2295H111.455C111.685 17.2295 111.8 17.3698 111.8 17.6504V27.5985C111.8 28.1086 111.787 28.7718 111.761 29.5881C111.736 30.3788 111.697 31.2206 111.646 32.1134C111.595 32.9807 111.544 33.8224 111.493 34.6387C111.442 35.4294 111.404 36.0799 111.378 36.59H111.455C111.634 35.9268 111.838 35.1616 112.068 34.2943C112.298 33.4015 112.566 32.394 112.873 31.2716C113.205 30.1493 113.576 28.9249 113.985 27.5985L117.09 17.5356C117.141 17.3315 117.269 17.2295 117.473 17.2295H121.23C121.486 17.2295 121.614 17.3698 121.614 17.6504V41.8702C121.614 42.1508 121.486 42.2911 121.23 42.2911H118.087C117.857 42.2911 117.742 42.1508 117.742 41.8702L117.818 32.5343C117.818 31.9476 117.831 31.2334 117.857 30.3916C117.882 29.5498 117.908 28.6826 117.933 27.7898C117.985 26.8715 118.036 26.0042 118.087 25.188C118.138 24.3462 118.189 23.6192 118.24 23.007H118.163C117.959 23.7723 117.729 24.6268 117.473 25.5706C117.218 26.4889 116.924 27.5347 116.592 28.7081C116.259 29.8559 115.876 31.1313 115.442 32.5343L112.413 41.985C112.362 42.189 112.234 42.2911 112.03 42.2911H108.311Z" fill="#ADADAD"/>
<path d="M97.6821 42.2911C97.4521 42.2911 97.3371 42.1508 97.3371 41.8702V20.8644H93.3502C93.0946 20.8644 92.9668 20.7241 92.9668 20.4435V17.6504C92.9668 17.3698 93.0946 17.2295 93.3502 17.2295H105.349C105.579 17.2295 105.694 17.3698 105.694 17.6504V20.4435C105.694 20.7241 105.579 20.8644 105.349 20.8644H101.362V41.8702C101.362 42.1508 101.235 42.2911 100.979 42.2911H97.6821Z" fill="#ADADAD"/>
<path d="M79.8196 42.2911C79.5896 42.2911 79.4746 42.1508 79.4746 41.8702V17.6504C79.4746 17.3698 79.5896 17.2295 79.8196 17.2295H84.535C86.9374 17.2295 88.7008 17.8799 89.8254 19.1809C90.9755 20.4818 91.5505 22.5224 91.5505 25.3028C91.5505 27.8791 90.9627 29.8559 89.787 31.2334C88.637 32.6108 86.9374 33.2995 84.6883 33.2995H83.4999V41.8702C83.4999 42.1508 83.3849 42.2911 83.1549 42.2911H79.8196ZM83.4999 29.6646H84.535C85.5828 29.6646 86.3368 29.3075 86.7968 28.5933C87.2824 27.8791 87.5252 26.795 87.5252 25.341C87.5252 23.734 87.2824 22.5862 86.7968 21.8974C86.3368 21.2087 85.6084 20.8644 84.6117 20.8644H83.4999V29.6646Z" fill="#ADADAD"/>
<path d="M69.526 42.5207C67.2514 42.5207 65.5135 41.8575 64.3123 40.5311C63.1366 39.2047 62.5488 37.2278 62.5488 34.6005V24.9585C62.5488 22.3057 63.1366 20.316 64.3123 18.9896C65.5135 17.6632 67.2514 17 69.526 17C71.7751 17 73.5002 17.6632 74.7014 18.9896C75.9026 20.316 76.5032 22.3057 76.5032 24.9585V34.6005C76.5032 37.2278 75.9026 39.2047 74.7014 40.5311C73.5002 41.8575 71.7751 42.5207 69.526 42.5207ZM69.526 38.8476C70.5228 38.8476 71.2639 38.5032 71.7495 37.8145C72.2607 37.1258 72.5162 35.9907 72.5162 34.4092V25.1498C72.5162 23.5428 72.2607 22.3949 71.7495 21.7062C71.2639 21.0175 70.5228 20.6731 69.526 20.6731C68.5293 20.6731 67.7753 21.0175 67.2642 21.7062C66.7786 22.3949 66.5358 23.5428 66.5358 25.1498V34.4092C66.5358 35.9907 66.7786 37.1258 67.2642 37.8145C67.7753 38.5032 68.5293 38.8476 69.526 38.8476Z" fill="#ADADAD"/>
<path d="M46.2396 42.2911C46.0095 42.2911 45.8945 42.1508 45.8945 41.8702V17.6504C45.8945 17.3698 46.0223 17.2295 46.2779 17.2295H59.1589C59.4144 17.2295 59.5422 17.3698 59.5422 17.6504V41.8702C59.5422 42.1508 59.4144 42.2911 59.1589 42.2911H55.9003C55.6447 42.2911 55.5169 42.1508 55.5169 41.8702V20.8644H49.9198V41.8319C49.9198 42.138 49.8048 42.2911 49.5748 42.2911H46.2396Z" fill="#ADADAD"/>
<path d="M36.1666 42.5207C33.892 42.5207 32.1541 41.8575 30.9529 40.5311C29.7773 39.1792 29.1895 37.0875 29.1895 34.2561V25.2646C29.1895 22.5097 29.7773 20.4436 30.9529 19.0661C32.1541 17.6887 33.892 17 36.1666 17C37.7512 17 39.0802 17.3571 40.1536 18.0713C41.227 18.7856 41.9937 19.7931 42.4538 21.094C42.9394 22.3949 43.0799 23.9254 42.8755 25.6855C42.8244 25.9405 42.7093 26.0681 42.5304 26.0681H39.1952C38.9396 26.0681 38.8374 25.9278 38.8885 25.6472C39.0163 24.0147 38.863 22.7776 38.4285 21.9358C37.994 21.094 37.2273 20.6731 36.1283 20.6731C35.1316 20.6731 34.3904 21.043 33.9048 21.7827C33.4192 22.5225 33.1764 23.7341 33.1764 25.4176V34.0266C33.1764 35.7611 33.4192 36.9982 33.9048 37.738C34.416 38.4777 35.1699 38.8476 36.1666 38.8476C37.3167 38.8476 38.0834 38.4012 38.4668 37.5084C38.8502 36.5901 39.0035 35.3785 38.9268 33.8735C38.9013 33.5674 39.0035 33.4144 39.2335 33.4144H42.4921C42.7221 33.4144 42.8627 33.5674 42.9138 33.8735C43.1183 36.5519 42.6455 38.669 41.4954 40.225C40.3708 41.7555 38.5946 42.5207 36.1666 42.5207Z" fill="#ADADAD"/>
</svg>
