<svg width="213" height="96" viewBox="0 0 213 96" fill="none" xmlns="http://www.w3.org/2000/svg">
<path d="M182.945 40.0557C184.486 40.0557 185.858 40.3677 187.062 40.9917C188.291 41.5917 189.254 42.5277 189.952 43.7997C190.65 45.0477 191 46.6557 191 48.6237V59.7117H185.365V49.4877C185.365 47.9277 185.015 46.7757 184.317 46.0317C183.643 45.2877 182.68 44.9157 181.427 44.9157C180.536 44.9157 179.73 45.1077 179.007 45.4917C178.309 45.8517 177.755 46.4157 177.346 47.1837C176.96 47.9517 176.768 48.9357 176.768 50.1357V59.7117H171.133V40.3437H176.515V45.7077L175.504 44.0877C176.202 42.7917 177.201 41.7957 178.502 41.0997C179.802 40.4037 181.283 40.0557 182.945 40.0557Z" fill="#ADADAD"/>
<path d="M160.759 59.7117V55.9317L160.397 55.1037V48.3357C160.397 47.1357 160.024 46.1997 159.278 45.5277C158.555 44.8557 157.435 44.5197 155.918 44.5197C154.883 44.5197 153.859 44.6877 152.848 45.0237C151.861 45.3357 151.018 45.7677 150.319 46.3197L148.297 42.3957C149.356 41.6517 150.633 41.0757 152.126 40.6677C153.619 40.2597 155.136 40.0557 156.677 40.0557C159.639 40.0557 161.939 40.7517 163.576 42.1437C165.214 43.5357 166.032 45.7077 166.032 48.6597V59.7117H160.759ZM154.835 59.9997C153.318 59.9997 152.017 59.7477 150.934 59.2437C149.85 58.7157 149.019 58.0077 148.441 57.1197C147.863 56.2317 147.574 55.2357 147.574 54.1317C147.574 52.9797 147.851 51.9717 148.405 51.1077C148.983 50.2437 149.886 49.5717 151.114 49.0917C152.342 48.5877 153.944 48.3357 155.918 48.3357H161.084V51.6117H156.532C155.208 51.6117 154.293 51.8277 153.787 52.2597C153.306 52.6917 153.065 53.2317 153.065 53.8797C153.065 54.5997 153.342 55.1757 153.895 55.6077C154.473 56.0157 155.256 56.2197 156.243 56.2197C157.183 56.2197 158.025 56.0037 158.772 55.5717C159.518 55.1157 160.06 54.4557 160.397 53.5917L161.264 56.1837C160.855 57.4317 160.108 58.3797 159.025 59.0277C157.941 59.6757 156.544 59.9997 154.835 59.9997Z" fill="#ADADAD"/>
<path d="M136.889 59.9997C134.794 59.9997 132.928 59.5797 131.29 58.7397C129.653 57.8757 128.365 56.6877 127.425 55.1757C126.51 53.6637 126.053 51.9477 126.053 50.0277C126.053 48.0837 126.51 46.3677 127.425 44.8797C128.365 43.3677 129.653 42.1917 131.29 41.3517C132.928 40.4877 134.794 40.0557 136.889 40.0557C138.936 40.0557 140.718 40.4877 142.235 41.3517C143.752 42.1917 144.872 43.4037 145.594 44.9877L141.224 47.3277C140.718 46.4157 140.08 45.7437 139.309 45.3117C138.563 44.8797 137.744 44.6637 136.853 44.6637C135.89 44.6637 135.023 44.8797 134.252 45.3117C133.482 45.7437 132.868 46.3557 132.41 47.1477C131.977 47.9397 131.76 48.8997 131.76 50.0277C131.76 51.1557 131.977 52.1157 132.41 52.9077C132.868 53.6997 133.482 54.3117 134.252 54.7437C135.023 55.1757 135.89 55.3917 136.853 55.3917C137.744 55.3917 138.563 55.1877 139.309 54.7797C140.08 54.3477 140.718 53.6637 141.224 52.7277L145.594 55.1037C144.872 56.6637 143.752 57.8757 142.235 58.7397C140.718 59.5797 138.936 59.9997 136.889 59.9997Z" fill="#ADADAD"/>
<path d="M114.355 59.9997C112.139 59.9997 110.189 59.5677 108.503 58.7037C106.842 57.8397 105.553 56.6637 104.638 55.1757C103.723 53.6637 103.266 51.9477 103.266 50.0277C103.266 48.0837 103.711 46.3677 104.602 44.8797C105.517 43.3677 106.757 42.1917 108.323 41.3517C109.888 40.4877 111.658 40.0557 113.632 40.0557C115.535 40.0557 117.245 40.4637 118.762 41.2797C120.303 42.0717 121.519 43.2237 122.41 44.7357C123.301 46.2237 123.747 48.0117 123.747 50.0997C123.747 50.3157 123.734 50.5677 123.71 50.8557C123.686 51.1197 123.662 51.3717 123.638 51.6117H107.853V48.3357H120.676L118.509 49.3077C118.509 48.2997 118.304 47.4237 117.895 46.6797C117.485 45.9357 116.92 45.3597 116.197 44.9517C115.475 44.5197 114.632 44.3037 113.669 44.3037C112.705 44.3037 111.851 44.5197 111.104 44.9517C110.382 45.3597 109.816 45.9477 109.406 46.7157C108.997 47.4597 108.792 48.3477 108.792 49.3797V50.2437C108.792 51.2997 109.021 52.2357 109.479 53.0517C109.96 53.8437 110.622 54.4557 111.465 54.8877C112.332 55.2957 113.344 55.4997 114.499 55.4997C115.535 55.4997 116.438 55.3437 117.209 55.0317C118.003 54.7197 118.726 54.2517 119.376 53.6277L122.374 56.8677C121.483 57.8757 120.363 58.6557 119.015 59.2077C117.666 59.7357 116.113 59.9997 114.355 59.9997Z" fill="#ADADAD"/>
<path d="M91.2562 60C89.5464 60 88.0775 59.64 86.8493 58.92C85.6212 58.2 84.6821 57.108 84.0319 55.644C83.3817 54.156 83.0566 52.284 83.0566 50.028C83.0566 47.748 83.3937 45.876 84.068 44.412C84.7663 42.948 85.7296 41.856 86.9577 41.136C88.1858 40.416 89.6187 40.056 91.2562 40.056C93.0863 40.056 94.7238 40.464 96.1687 41.28C97.6376 42.096 98.7935 43.248 99.6363 44.736C100.503 46.224 100.937 47.988 100.937 50.028C100.937 52.044 100.503 53.796 99.6363 55.284C98.7935 56.772 97.6376 57.936 96.1687 58.776C94.7238 59.592 93.0863 60 91.2562 60ZM79.7695 59.712V33H85.4045V44.268L85.0433 49.992L85.1516 55.752V59.712H79.7695ZM90.2809 55.392C91.22 55.392 92.0508 55.176 92.7733 54.744C93.5198 54.312 94.1098 53.7 94.5432 52.908C95.0008 52.092 95.2295 51.132 95.2295 50.028C95.2295 48.9 95.0008 47.94 94.5432 47.148C94.1098 46.356 93.5198 45.744 92.7733 45.312C92.0508 44.88 91.22 44.664 90.2809 44.664C89.3417 44.664 88.4989 44.88 87.7524 45.312C87.0059 45.744 86.4159 46.356 85.9824 47.148C85.549 47.94 85.3322 48.9 85.3322 50.028C85.3322 51.132 85.549 52.092 85.9824 52.908C86.4159 53.7 87.0059 54.312 87.7524 54.744C88.4989 55.176 89.3417 55.392 90.2809 55.392Z" fill="#ADADAD"/>
<path d="M65.3482 59.9997C63.2772 59.9997 61.435 59.5677 59.8216 58.7037C58.2323 57.8397 56.968 56.6637 56.0289 55.1757C55.1138 53.6637 54.6562 51.9477 54.6562 50.0277C54.6562 48.0837 55.1138 46.3677 56.0289 44.8797C56.968 43.3677 58.2323 42.1917 59.8216 41.3517C61.435 40.4877 63.2772 40.0557 65.3482 40.0557C67.3951 40.0557 69.2252 40.4877 70.8387 41.3517C72.4521 42.1917 73.7163 43.3557 74.6314 44.8437C75.5465 46.3317 76.004 48.0597 76.004 50.0277C76.004 51.9477 75.5465 53.6637 74.6314 55.1757C73.7163 56.6637 72.4521 57.8397 70.8387 58.7037C69.2252 59.5677 67.3951 59.9997 65.3482 59.9997ZM65.3482 55.3917C66.2874 55.3917 67.1302 55.1757 67.8767 54.7437C68.6232 54.3117 69.2132 53.6997 69.6467 52.9077C70.0801 52.0917 70.2968 51.1317 70.2968 50.0277C70.2968 48.8997 70.0801 47.9397 69.6467 47.1477C69.2132 46.3557 68.6232 45.7437 67.8767 45.3117C67.1302 44.8797 66.2874 44.6637 65.3482 44.6637C64.409 44.6637 63.5662 44.8797 62.8197 45.3117C62.0732 45.7437 61.4712 46.3557 61.0136 47.1477C60.5802 47.9397 60.3634 48.8997 60.3634 50.0277C60.3634 51.1317 60.5802 52.0917 61.0136 52.9077C61.4712 53.6997 62.0732 54.3117 62.8197 54.7437C63.5662 55.1757 64.409 55.3917 65.3482 55.3917Z" fill="#ADADAD"/>
<path d="M22 59.7117V34.5117H26.8403L37.6045 52.2957H35.0399L45.6234 34.5117H50.4276L50.4998 59.7117H45.0094L44.9733 42.8997H45.9847L37.5322 57.0477H34.8954L26.2623 42.8997H27.4905V59.7117H22Z" fill="#ADADAD"/>
</svg>
