<svg width="213" height="96" viewBox="0 0 213 96" fill="none" xmlns="http://www.w3.org/2000/svg">
<path fill-rule="evenodd" clip-rule="evenodd" d="M104.546 95.3603C94.7369 88.063 86.9032 79.5126 81.2373 69.9267L75.9772 74.5389L74.2448 74.1734C70.9515 73.4774 68.3026 72.0413 66.3693 69.905C64.3481 67.664 63.2601 64.8051 63.1178 61.4022C63.0505 58.7626 63.5049 56.137 64.4528 53.6874C65.3677 51.1507 66.6367 48.7683 68.2189 46.6163C69.2124 45.2995 70.3053 44.0669 71.4871 42.9306C71.1813 41.0353 70.9867 39.4332 70.8414 38.2372L70.8301 38.144L70.6711 36.8387C70.3356 33.6224 70.1959 30.3872 70.2526 27.1526C70.2526 23.1711 70.3824 19.2853 70.4619 17.3185L70.5037 16.3046L71.4202 15.9434C74.1459 14.9011 76.9437 14.0749 79.7894 13.4718C79.6148 12.6614 79.5555 11.8286 79.6137 11.0003C79.9359 6.6489 83.3297 3.26352 87.8615 2.81533C88.2172 2.78051 88.5856 2.76314 88.9579 2.76314C89.8978 2.76806 90.8345 2.87453 91.7534 3.08077L92.6865 3.28528L93.6029 3.04595C100.557 1.10925 107.717 0.085952 114.915 0C124.335 0 129.31 2.0495 129.515 2.13651L130.909 2.71962L129.946 3.86403C131.114 4.67245 131.971 5.88131 132.369 7.27984L132.407 7.4191V12.5146C132.4 12.9345 132.364 13.3533 132.298 13.7677C134.714 14.3268 137.09 15.0537 139.412 15.9434L140.324 16.3046L140.366 17.3185C140.462 19.7378 140.575 23.4104 140.575 27.1568C140.575 29.1802 140.542 30.9904 140.475 32.5613L144.609 31.4256L142.818 37.7917L148.903 32.4438L144.685 47.2384L136.567 54.3923C135.727 56.9994 134.749 59.5562 133.637 62.0506C127.921 74.887 118.711 86.0963 106.266 95.3648L105.383 96L104.546 95.3603ZM146.883 35.6814L140.795 41.0161L143.046 33.0052L139.322 34.028C139.443 32.1656 139.501 29.8724 139.501 27.1614C139.501 23.1799 139.372 19.3289 139.292 17.3708V17.088L139.033 16.9835C136.426 15.9879 133.751 15.1938 131.032 14.6077C131.227 13.9279 131.334 13.224 131.35 12.5147V7.56716C131.118 6.7966 130.719 6.09174 130.184 5.50703C129.648 4.92233 128.99 4.47337 128.262 4.19484L129.128 3.16358C129.128 3.16358 116.792 -2.02762 93.8809 4.09478L92.7047 4.43417L91.5122 4.17308C90.3422 3.89669 89.138 3.8101 87.9428 3.91638C83.9382 4.31234 80.9418 7.25823 80.6615 11.0787C80.5767 12.1794 80.7312 13.2859 81.1134 14.3161C77.9357 14.9348 74.812 15.8226 71.7733 16.9705L71.5139 17.0749V17.3577C71.4344 19.3072 71.3047 23.1712 71.3047 27.1441C71.2509 30.3307 71.3907 33.5179 71.7231 36.6865L71.8821 37.9921L71.8932 38.0838L71.8932 38.0838L71.8932 38.0839C72.0552 39.423 72.2712 41.2089 72.6312 43.3441C71.3418 44.5489 70.1572 45.8696 69.091 47.291C67.5677 49.3592 66.3453 51.6494 65.4629 54.0878C64.5703 56.3966 64.143 58.8715 64.2075 61.3588C64.3247 64.4875 65.3206 67.107 67.1619 69.1435C68.9362 71.1102 71.3925 72.4376 74.4682 73.0859L75.6943 73.3425L81.5152 68.2385C87.1519 78.1464 95.0777 86.9492 105.167 94.4555L105.409 94.6382L105.648 94.4555C117.947 85.3176 127.036 74.2388 132.676 61.5809C133.811 59.0308 134.806 56.4158 135.656 53.7483L143.774 46.6251L146.883 35.6814ZM139.28 36.8213L135.908 48.8178L141.971 43.4831L141.523 45.0498L131.899 53.4869L130.007 54.0091L131.752 47.7301L122.127 56.1717L120.232 56.6939L122.19 49.7317L111.545 59.0914L109.649 59.6136L111.226 54.1221C110.86 54.0971 110.488 54.065 110.114 54.0326C109.972 54.0203 109.829 54.008 109.686 53.996C109.168 53.9525 108.653 53.8831 108.142 53.796C107.176 53.6207 106.271 53.1803 105.523 52.5208L90.458 65.7055C89.2941 65.1973 88.2826 64.3739 87.529 63.3211C86.9664 62.4248 86.614 61.404 86.4996 60.3403L74.9749 70.4485C72.4223 69.9061 70.443 68.8575 69.037 67.3026C67.6309 65.7477 66.8791 63.7301 66.7814 61.2498C66.7334 59.1218 67.108 57.0066 67.882 55.036C68.6774 52.8363 69.78 50.7704 71.1544 48.9048C72.5445 47.0469 74.1575 45.3813 75.9542 43.9487C77.6083 42.6472 79.4837 41.6818 81.4821 41.1029C83.0483 40.62 84.7002 40.516 86.3112 40.7983C87.6099 41.0514 88.7793 41.7781 89.6086 42.8479L90.8307 41.8296L91.2951 42.5736L82.7626 50.0405L82.2269 49.3359L85.7964 46.229C85.5991 45.3701 85.1828 44.5823 84.5913 43.9487C84.0521 43.3611 83.3597 42.9499 82.5994 42.7653C81.7883 42.5698 80.9426 42.5938 80.143 42.8347C78.8456 43.2043 77.6302 43.8341 76.5651 44.6885C75.4074 45.6235 74.4002 46.7442 73.5815 48.0085C72.7291 49.2885 72.0688 50.6955 71.6231 52.1816C71.2148 53.6213 71.0284 55.1195 71.0707 56.62C71.0921 58.1231 71.464 59.5983 72.1545 60.9192C72.821 62.1243 73.7959 63.1141 74.9708 63.7781C76.3884 64.5531 77.9246 65.0671 79.5111 65.2965L86.4534 59.2437C86.5168 57.7989 86.8886 56.3871 87.5413 55.1099C88.3635 53.5055 89.4745 52.0799 90.8137 50.9109C92.1062 49.7861 93.6142 48.9599 95.2369 48.4872C95.952 48.2853 96.6968 48.2219 97.4338 48.3C98.0924 48.4219 98.7183 48.6875 99.271 49.0789C99.8043 49.4943 100.225 50.0459 100.493 50.6802C100.819 51.3813 100.996 52.1471 101.012 52.9256C101.044 53.8463 100.919 54.7653 100.644 55.6408L104.92 51.8683C104.823 51.7295 104.735 51.5842 104.656 51.4331C103.998 50.2088 103.892 48.5381 104.339 46.4203L109.239 45.0408C108.99 45.8219 108.857 46.6376 108.845 47.4603C108.834 48.2088 108.928 48.9551 109.126 49.6751C109.315 50.3544 109.627 50.9896 110.046 51.5461C110.465 52.1019 110.98 52.5714 111.565 52.9301L114.101 43.7007L118.93 42.3954L115.557 54.3922L122.604 48.1522L124.667 40.7851L129.492 39.4799L126.145 51.4767L132.192 46.1765L134.451 38.1266L139.28 36.8213ZM94.4211 61.1237C95.2138 60.3874 95.8877 59.5237 96.417 58.565C96.7888 57.7717 96.9547 56.8911 96.8983 56.0107C96.8519 55.0715 96.606 54.1547 96.1785 53.3259C95.8013 52.5218 95.223 51.8383 94.5048 51.3461C94.2069 51.1535 93.8751 51.0242 93.5289 50.9659C93.1827 50.9077 92.8288 50.9215 92.4875 51.0066C92.1229 51.1176 91.7831 51.3035 91.4886 51.5531C91.1938 51.8027 90.9504 52.1109 90.7719 52.46C90.3152 53.2687 90.0995 54.1999 90.1527 55.1362C90.1764 56.4802 90.6168 57.7803 91.408 58.8434C92.1712 59.8991 93.2203 60.6933 94.4211 61.1237ZM110.607 61.3975C113.17 62.264 115.575 63.5715 117.721 65.2659C114.913 61.9155 110.607 61.3975 110.607 61.3975ZM129.299 57.106L129.346 57.0028L130.71 56.6201C130.632 56.8041 130.552 56.9881 130.471 57.1737L130.47 57.1752L130.426 57.276L130.363 57.4208C125.111 69.2041 116.713 79.5475 105.381 88.1763V85.6611C108.956 83.0051 112.33 80.0681 115.474 76.8758C115.503 76.7321 115.503 76.5929 115.503 76.4665L115.549 75.318L115.742 76.4102C115.771 76.4665 115.771 76.519 115.771 76.5712C115.862 76.4796 115.949 76.3858 116.036 76.2912L116.036 76.2908L116.037 76.2891L116.092 76.2298L116.123 76.1967C116.02 74.6191 115.687 73.0668 115.135 71.5932L114.717 70.5967L114.922 70.9446C114.941 70.9641 114.958 70.9862 114.972 71.0099C115.871 72.4355 116.406 74.0751 116.529 75.7747L116.579 75.7139C116.511 73.5049 115.759 71.3779 114.436 69.6479C114.396 69.6066 114.354 69.5616 114.308 69.514C114.22 69.4217 114.123 69.3192 114.018 69.2127V69.2607C113.998 69.742 113.951 70.2214 113.876 70.6966C113.845 70.7587 113.828 70.8271 113.828 70.8969C113.828 70.9667 113.845 71.0351 113.876 71.0969L113.917 71.1494V71.1753C114.089 71.4012 114.247 71.638 114.39 71.8848C114.474 72.0144 114.547 72.151 114.608 72.2937L113.671 71.3798L113.511 71.2406C113.383 71.1238 113.221 71.055 113.051 71.0447L110.754 70.9708C110.67 70.9654 110.589 70.9401 110.516 70.8963C110.443 70.8524 110.381 70.7916 110.335 70.7183L109.109 68.7689C109.021 68.6374 108.897 68.5359 108.754 68.4774L107.08 67.9683H107.758C108.046 67.9696 108.333 67.9872 108.62 68.0208C108.685 68.0179 108.75 67.9993 108.807 67.966C108.864 67.9327 108.914 67.8857 108.95 67.8291C109.321 67.4892 109.716 67.1779 110.13 66.8979C110.197 66.8499 110.275 66.8198 110.356 66.8108C110.295 66.7756 110.231 66.7481 110.164 66.7283C107.622 65.8521 104.853 66.0361 102.439 67.2419C102.545 67.223 102.654 67.2412 102.749 67.294C102.909 67.3897 103.048 67.4719 103.168 67.543L103.169 67.5432L103.17 67.5437L103.17 67.5441L103.171 67.5445L103.171 67.5447L103.172 67.5454L103.173 67.546L103.174 67.5462L103.175 67.5468C103.569 67.7802 103.759 67.893 103.862 67.9727C103.913 68.0204 103.973 68.0569 104.039 68.0793C104.105 68.1017 104.174 68.11 104.242 68.1033C104.391 68.0617 104.542 68.0297 104.694 68.0076C104.859 67.9641 105.014 67.9424 105.159 67.9424H105.197L105.523 67.912L104.268 68.4601C104.133 68.5382 104.023 68.6544 103.949 68.7952C103.903 68.8919 103.833 69.0359 103.727 69.2532L103.727 69.2533C103.547 69.6224 103.265 70.203 102.82 71.1231C102.779 71.2044 102.719 71.2742 102.646 71.3257C102.573 71.3772 102.489 71.4095 102.401 71.4192C101.99 71.4815 101.642 71.5332 101.347 71.577C99.8522 71.7994 99.7205 71.819 99.5599 71.9935C99.4219 72.1429 99.2927 72.2969 99.1798 72.4314L99.1797 72.4315C99.1349 72.4848 99.0928 72.5351 99.0536 72.5807L98.681 73.0463L98.8234 72.7507C98.9047 72.5558 98.9955 72.3657 99.0955 72.1804L99.225 71.902C99.2487 71.8403 99.2583 71.7734 99.2533 71.7072C99.2481 71.6406 99.2284 71.5763 99.1958 71.519C99.0869 71.1068 99.0001 70.6883 98.9364 70.2659C98.9238 70.1651 98.9382 70.0627 98.9782 69.9702C98.0538 71.0447 97.3457 72.3011 96.8958 73.6649C96.4455 75.0291 96.2631 76.4729 96.3585 77.9113C96.1794 77.7415 96.0217 77.579 95.8622 77.4147L95.8617 77.4142L95.8608 77.4132L95.8606 77.4131L95.8055 77.3563C95.7712 77.321 95.7367 77.2855 95.7017 77.2499C95.6759 74.6153 96.5209 72.0518 98.0953 69.9875C101.945 64.8963 109.519 63.6345 115.001 69.0735C116.383 70.5059 117.391 72.2806 117.93 74.23C118.043 74.1029 118.156 73.9765 118.269 73.8502L118.27 73.8489L118.27 73.8489L118.27 73.8488L118.27 73.8488L118.27 73.8487C118.447 73.6512 118.623 73.4541 118.797 73.2553C118.432 70.9839 116.792 68.6864 116.792 68.6864C116.792 68.6864 118.709 70.5443 119.37 72.6025C119.43 72.5309 119.489 72.458 119.548 72.3852L119.548 72.3847C119.607 72.312 119.665 72.2392 119.726 72.1676C119.076 70.2751 118.05 68.5462 116.715 67.094C115.379 65.6419 113.765 64.4985 111.976 63.7388C111.976 63.7388 117.324 65.0486 120.295 71.4713C123.756 67.2284 126.707 62.5628 129.082 57.5772C129.144 57.4468 129.201 57.3204 129.259 57.1939L129.299 57.106ZM106.761 81.8306L106.761 81.8313C106.822 82.1441 106.922 82.6614 107.168 83.8685C107.186 83.9464 107.182 83.8971 107.177 83.816C107.173 83.7613 107.168 83.6921 107.168 83.6378V81.3619C107.17 81.2867 107.188 81.2131 107.219 81.1453C107.251 81.0778 107.297 81.0182 107.352 80.9702L110.256 78.6858C110.381 78.6051 110.531 78.577 110.675 78.6077C111.317 78.7469 111.951 78.9213 112.575 79.1296C112.61 79.1407 112.652 79.1552 112.692 79.1689L112.692 79.1689C112.793 79.2038 112.878 79.2331 112.796 79.1862L110.842 78.1158C110.716 78.0336 110.618 77.9117 110.562 77.7677C110.449 77.4154 110.143 76.4842 109.307 73.969C109.327 73.8848 109.357 73.8032 109.394 73.7254L109.578 73.2902C109.683 73.0291 109.788 72.768 109.888 72.5245L110.462 71.1318L109.625 72.4374L109.185 73.0899L108.942 73.4512C108.897 73.5098 108.841 73.5578 108.776 73.592C108.712 73.6266 108.642 73.6467 108.57 73.6512L104.867 73.6819C104.719 73.6762 104.579 73.6141 104.473 73.5078L104.251 73.2598L102.871 71.6237L102.996 71.8454V71.8848L103.707 73.0378L104.021 73.5731L104.13 73.76C104.197 73.8941 104.215 74.0486 104.18 74.1952C104.139 74.3407 104.081 74.5457 104.012 74.7868L104.012 74.7869L104.011 74.7871C103.738 75.7428 103.303 77.265 103.143 77.8941C103.119 77.9645 103.081 78.0291 103.031 78.0832C102.981 78.1373 102.921 78.1795 102.854 78.2074C102.013 78.4493 101.188 78.7485 100.385 79.1037L102.996 78.76C103.143 78.7498 103.29 78.7878 103.414 78.8685L106.423 81.0445C106.542 81.1299 106.63 81.2538 106.674 81.3968C106.704 81.536 106.726 81.6487 106.761 81.8306ZM98.2684 76.393V76.6193C98.2684 76.8697 98.3448 76.9584 99.2785 78.0432C99.4806 78.2781 99.7229 78.5596 100.013 78.8996C100.071 78.9658 100.111 79.0458 100.131 79.1322C100.152 79.2189 100.151 79.3092 100.131 79.3956C99.9548 80.1265 99.8293 80.6487 99.7416 81.0273C98.6005 80.0209 97.4985 78.9953 96.4355 77.9508C96.4617 77.8513 96.5156 77.762 96.5903 77.6941C96.7991 77.5266 96.969 77.3892 97.1085 77.2764C97.4221 77.0228 97.5825 76.8931 97.6868 76.8237C97.7591 76.7889 97.8216 76.7354 97.8684 76.6685C97.9151 76.6017 97.945 76.5233 97.9545 76.441C98.0426 75.8839 98.2684 74.9092 98.2684 74.9092V76.393ZM84.5642 65.5537L83.4218 66.5761C88.6441 75.8881 96.0259 84.2078 105.383 91.3486V88.2721C96.549 81.658 89.5689 74.0388 84.5642 65.5537ZM84.6739 24.9381C85.2808 24.2421 86.0255 23.9417 86.3477 24.2421C86.6659 24.5464 86.4566 25.3429 85.8458 26.0347C85.2346 26.7265 84.5065 27.0312 84.1717 26.7265C83.8369 26.4219 84.0671 25.6344 84.6739 24.9381ZM82.7489 16.9224C79.8054 17.4804 76.9048 18.2599 74.0699 19.2547C73.9946 21.3042 73.9026 24.4763 73.9026 27.7397C73.8582 30.7746 73.9979 33.8092 74.321 36.8255L74.4758 38.0917L74.4998 38.2909C74.6042 39.1604 74.7312 40.2184 74.8943 41.4338C75.25 41.1768 75.6099 40.9288 75.9698 40.6981C76.045 40.6497 76.1218 40.6045 76.1982 40.5596L76.1986 40.5593L76.1992 40.559C76.2457 40.5316 76.2922 40.5043 76.338 40.4763C76.0493 38.7794 75.8652 37.3477 75.727 36.2556L75.5597 34.9979C75.2766 32.5116 75.1452 30.0088 75.1663 27.5048C75.1663 24.9855 75.2249 21.4434 75.271 19.9291C77.8939 19.1589 80.5568 18.5444 83.247 18.0885C80.801 23.4624 79.3393 29.2632 78.9367 35.1938C79.7917 29.4872 81.5747 23.9735 84.2093 18.8892L84.5148 18.3278C83.8658 17.9474 83.2716 17.4743 82.7489 16.9224ZM85.1687 28.7975C85.7839 27.4833 86.7754 26.6695 87.3906 26.9786C88.0144 27.3006 87.9935 28.6148 87.3906 29.9287C86.7881 31.243 85.7796 32.0609 85.1687 31.7348C84.5579 31.4084 84.5536 30.1114 85.1687 28.7975ZM106.64 16.035L105.757 15.5215C101.898 17.5227 98.1935 19.83 94.6758 22.4228C98.4459 19.8785 102.454 17.7383 106.64 16.035ZM88.6264 16.905C88.2999 16.8223 87.9694 16.7222 87.6515 16.6091C81.1987 14.8816 82.3662 6.7402 88.915 6.73584C89.597 6.71357 90.2786 6.78973 90.9406 6.96212C92.1124 7.26231 93.1914 7.86893 94.0749 8.72442C94.1374 8.78511 94.1957 8.85013 94.2539 8.91512L94.2546 8.91588L94.4137 9.08561C94.51 9.19872 94.6063 9.32058 94.6983 9.4424C94.7137 9.4638 94.7242 9.47716 94.7361 9.49236C94.7533 9.51426 94.7735 9.53998 94.8156 9.59904C94.8867 9.69914 94.9578 9.80356 95.0205 9.908C95.1627 9.88625 95.3092 9.86013 95.46 9.82096C96.3638 9.57293 97.0082 9.02903 96.8953 8.59389C96.7823 8.15876 95.9579 8.01079 95.0498 8.26752C94.8011 8.32023 94.5596 8.40349 94.33 8.51556C94.0238 8.025 93.6487 7.58496 93.2169 7.21015C93.9367 6.99258 94.6565 6.79242 95.3637 6.60096C95.5102 7.05351 96.3931 7.2058 97.3597 6.936C98.2426 6.68797 98.887 6.17018 98.9288 5.73504C100.207 5.45655 101.454 5.21722 102.67 5.01706C102.712 5.22157 103.08 5.2825 103.453 5.22157C103.825 5.16064 104.126 4.96919 104.126 4.78644C115.965 3.04589 124.33 4.5384 124.33 4.5384L123.493 5.55229C123.493 5.55229 126.937 5.98308 127.949 7.66704C126.618 6.99535 124.694 7.50002 121.815 8.25525C119.229 8.93352 115.873 9.81388 111.483 10.2257C111.483 10.2257 116.404 8.26317 118.597 7.76279C118.597 7.76279 109.282 7.15357 95.849 11.9096C95.849 11.9096 104.499 10.3605 107.846 10.7086L102.745 12.6537C105.82 12.4323 108.88 12.0387 111.914 11.4745C104.055 13.5068 99.3946 16.5402 95.6987 18.9461L95.6523 18.9763C95.9244 17.2966 95.3009 15.3951 94.9202 14.4422C95.5846 14.4626 96.2324 14.6637 96.799 15.0252C95.9678 13.0637 94.4466 11.5069 92.5473 10.6739C92.2038 10.5016 91.8413 10.3745 91.4677 10.2953C90.8836 10.159 90.2878 10.0861 89.6893 10.0777H89.3837H88.9652H88.915C87.962 10.1348 87.0175 10.2997 86.0989 10.5694C85.5481 10.7258 85.0083 10.9221 84.4836 11.1568L86.0152 11.431V11.6181C86.082 12.719 86.5633 14.6118 88.6264 16.905ZM101.448 6.63578C101.377 6.35728 100.85 6.26589 100.272 6.42692C99.6948 6.58791 99.2846 6.94036 99.3557 7.21885C99.427 7.49735 99.9542 7.58436 100.532 7.42772C101.109 7.27108 101.519 6.91424 101.448 6.63578ZM89.8413 21.4612C89.7157 21.1784 89.155 21.1653 88.586 21.4612C88.0167 21.7571 87.6822 22.1618 87.8074 22.4446C87.933 22.7274 88.494 22.7362 89.063 22.4664C89.632 22.1966 89.9668 21.7571 89.8413 21.4612ZM112.243 30.9863C112.46 30.5271 112.79 30.1367 113.201 29.8548C115.871 27.7008 125.106 22.9013 126.307 26.2692C126.568 27.2237 126.471 28.2455 126.035 29.128C126.035 29.128 121.675 28.384 114.029 33.6535C111.276 35.8989 108.832 33.6621 108.225 33.0183C108.13 32.9191 108.028 32.8272 107.92 32.744C106.481 31.7303 104.568 32.1568 104.024 32.3088L103.928 32.3396H103.869C103.773 31.2602 104.576 28.8669 105.865 26.4128L111.962 22.4575C110.356 22.8874 108.779 23.4282 107.242 24.0762C107.401 23.8369 107.556 23.6062 107.719 23.3756L112.172 20.495C112.172 20.495 111.092 20.7692 109.418 21.3653C109.44 21.3446 109.461 21.3224 109.482 21.2999L109.482 21.2997L109.482 21.2997L109.482 21.2997C109.51 21.2701 109.538 21.2402 109.569 21.213C110.987 20.3428 112.469 19.5892 114 18.959L112.967 21.4088C111.941 24.2676 110.673 28.9584 112.017 31.9085C112.027 31.6071 112.097 31.3108 112.222 31.0384C112.227 31.0202 112.234 31.0029 112.243 30.9863ZM88.9294 24.2108C88.5404 24.646 88.3896 25.1855 88.6032 25.3859C88.8165 25.5859 89.3018 25.3859 89.6954 24.9289C90.0886 24.4719 90.2351 23.9542 90.0216 23.7541C89.8083 23.5539 89.3227 23.7584 88.9294 24.2108ZM136.801 20.8018C136.852 21.6725 136.894 22.3956 136.894 24.5722C136.894 24.8399 136.889 25.0945 136.885 25.349L136.885 25.3503C136.881 25.6044 136.877 25.8586 136.877 26.1258V27.7399C136.877 30.5684 136.81 32.9137 136.676 34.7501L136.324 34.8458L135.195 35.1546L135.22 34.9546C135.531 32.1181 135.663 29.2631 135.613 26.4084C135.613 24.0893 135.563 21.7917 135.504 19.9293C134.174 19.5246 132.495 19.0895 130.483 18.6544L130.437 18.7545C130.194 19.4463 129.077 21.5263 129.077 21.5263C129.274 22.4032 129.314 23.3105 129.194 24.2023C131.198 27.9402 128.75 31.5997 128.75 31.5997C129.319 30.465 129.588 29.1936 129.53 27.9156C129.472 26.6375 129.089 25.3981 128.42 24.3242C128.517 23.3386 128.345 22.3444 127.922 21.4566C128.393 20.4452 128.804 19.4048 129.152 18.341L129.424 17.5099C129.452 17.4151 129.485 17.3221 129.525 17.2314C131.964 17.7442 134.37 18.4201 136.726 19.2548C136.751 19.9251 136.777 20.3803 136.801 20.8009V20.801V20.8011L136.801 20.8014L136.801 20.8018ZM108.471 17.1094C104.613 18.9674 99.5495 22.0003 92.9627 26.8913C92.9627 26.8913 101.11 20.9908 110.392 17.9927C109.723 17.7715 109.079 17.4753 108.471 17.1094ZM91.465 21.4262C91.3729 21.2217 91.6114 20.8997 92.03 20.7038C92.4316 20.508 92.8335 20.4993 92.9255 20.7038C93.0175 20.9084 92.7624 21.213 92.3605 21.4262C91.9589 21.6394 91.557 21.6307 91.465 21.4262ZM94.5905 46.1247C94.4846 46.1372 94.3782 46.1372 94.2723 46.1247C94.1904 46.1193 94.1113 46.0924 94.0421 46.0463C93.9836 46.0038 93.9399 45.9427 93.9165 45.8726C93.895 45.7839 93.895 45.6911 93.9165 45.6025C93.9362 45.4505 93.9818 45.3033 94.0507 45.1676C94.1237 45.0335 94.2135 44.9107 94.3185 44.8019C94.4323 44.6883 94.5588 44.5891 94.6951 44.5062C94.8407 44.4156 94.9949 44.3414 95.1552 44.2841L95.2014 44.1231L95.6743 43.9971L95.6239 44.158C95.731 44.1436 95.8393 44.1436 95.9461 44.158C96.0261 44.1667 96.1033 44.1936 96.1723 44.2364C96.2332 44.2774 96.2787 44.3388 96.3018 44.4105C96.3218 44.5007 96.3218 44.5942 96.3018 44.6844C96.2824 44.8374 96.2357 44.9849 96.164 45.1196C96.0935 45.2553 96.003 45.3785 95.8959 45.4851C95.7845 45.5999 95.6596 45.6995 95.5236 45.7811C95.3774 45.8707 95.2232 45.9449 95.0632 46.0031L95.0173 46.1683L94.5443 46.2988L94.5905 46.1247ZM94.3895 45.4198C94.3785 45.4671 94.3785 45.5164 94.3895 45.5635C94.4022 45.5993 94.4255 45.63 94.4566 45.6505C94.4902 45.6739 94.5293 45.6873 94.5696 45.6895C94.6179 45.6985 94.6674 45.6985 94.7161 45.6895L95.0004 44.7366C94.9235 44.7673 94.8493 44.8054 94.7788 44.8499C94.6428 44.9273 94.5308 45.0435 94.4566 45.1849C94.4191 45.2623 94.3963 45.3465 94.3895 45.4329V45.4198ZM95.8082 44.8803C95.8214 44.8335 95.8214 44.7836 95.8082 44.7366C95.7984 44.7007 95.7759 44.6697 95.7454 44.6499C95.7128 44.6271 95.6756 44.6137 95.6365 44.6105C95.5866 44.6019 95.5359 44.6019 95.486 44.6105L95.2014 45.559C95.2783 45.5299 95.3525 45.4937 95.4232 45.4505C95.4897 45.4086 95.5516 45.3587 95.6073 45.3023C95.6611 45.247 95.7076 45.1839 95.7454 45.1155C95.7784 45.0457 95.7996 44.9705 95.8082 44.8934V44.8803ZM96.8279 45.337H96.7861L96.5938 45.7328H96.6688H96.7735C96.8326 45.7171 96.8901 45.695 96.9452 45.6675C97.0064 45.6394 97.0652 45.6058 97.1209 45.5677C97.18 45.5274 97.2348 45.4806 97.284 45.4285C97.3394 45.3766 97.3886 45.3181 97.4305 45.2544L98.8325 43.1699L98.3094 43.3136L97.6105 44.3667L97.4767 43.5443L96.9535 43.6877L97.1963 44.9629L97.0163 45.2282C96.9969 45.257 96.9729 45.2819 96.9452 45.3021C96.9175 45.3174 96.8879 45.3293 96.8572 45.337H96.8279ZM99.8561 43.2702L99.2871 43.427L99.4127 42.9918L101.024 42.5566L100.898 42.9918L100.329 43.1483L99.8143 44.8629L99.3416 44.9934L99.8561 43.2702ZM102.625 42.8696C102.537 42.8635 102.449 42.8737 102.365 42.9L102.01 42.9915L102.114 42.6433L103.002 42.4039L103.131 41.9688L101.742 42.3473L101.102 44.4971L101.939 44.2708C102.015 44.2494 102.089 44.2203 102.16 44.1838C102.232 44.1473 102.302 44.1067 102.369 44.0619C102.437 44.012 102.501 43.9582 102.562 43.9009C102.62 43.8427 102.673 43.7803 102.721 43.7137C102.766 43.6484 102.804 43.5784 102.834 43.5047C102.864 43.434 102.886 43.3595 102.897 43.283C102.91 43.2139 102.91 43.1431 102.897 43.074C102.879 43.0174 102.845 42.9678 102.801 42.9304C102.749 42.8929 102.688 42.8718 102.625 42.8696ZM101.729 43.9486L101.884 43.4263L102.227 43.3524H102.311C102.333 43.347 102.356 43.347 102.378 43.3524C102.395 43.3659 102.408 43.3841 102.416 43.4046C102.425 43.4315 102.425 43.4606 102.416 43.4875C102.408 43.5316 102.394 43.5742 102.374 43.6135C102.349 43.6526 102.321 43.6891 102.29 43.7223C102.258 43.7534 102.223 43.7809 102.185 43.8052C102.147 43.826 102.106 43.8436 102.064 43.8574L101.729 43.9486ZM103.52 42.9959C103.538 42.882 103.568 42.7709 103.612 42.6653C103.663 42.5495 103.723 42.4388 103.792 42.3345C103.868 42.2269 103.95 42.1252 104.04 42.0298C104.132 41.9367 104.231 41.8506 104.337 41.7732C104.44 41.6954 104.55 41.6257 104.663 41.5642C104.771 41.5082 104.885 41.4631 105.002 41.4295C105.123 41.3946 105.25 41.3844 105.374 41.3991C105.474 41.4087 105.568 41.4477 105.646 41.5121C105.721 41.5732 105.775 41.6567 105.801 41.7514C105.829 41.8644 105.829 41.9825 105.801 42.0951C105.786 42.2097 105.755 42.321 105.709 42.426C105.659 42.5418 105.599 42.6522 105.529 42.7565C105.454 42.8657 105.371 42.9687 105.282 43.0657C105.188 43.16 105.089 43.2484 104.985 43.3309C104.882 43.4103 104.773 43.4804 104.659 43.5399C104.551 43.5981 104.437 43.6432 104.32 43.6749C104.199 43.713 104.073 43.7248 103.947 43.7095C103.849 43.6964 103.756 43.6573 103.675 43.5965C103.603 43.5338 103.549 43.4506 103.52 43.3572C103.491 43.2388 103.491 43.1143 103.52 42.9959ZM104.006 42.8263C103.991 42.8951 103.991 42.9664 104.006 43.0353C104.019 43.0919 104.049 43.1434 104.09 43.1831C104.134 43.2209 104.188 43.2448 104.245 43.2528C104.313 43.2672 104.385 43.2672 104.454 43.2528C104.524 43.2346 104.591 43.2068 104.654 43.17C104.723 43.1354 104.787 43.0928 104.847 43.0439C104.909 42.9959 104.966 42.9421 105.019 42.8829C105.073 42.8241 105.122 42.7601 105.165 42.6913C105.208 42.6292 105.245 42.562 105.274 42.4913C105.302 42.4218 105.32 42.3485 105.328 42.2737C105.343 42.2049 105.343 42.1335 105.328 42.0647C105.313 42.0087 105.284 41.9578 105.245 41.9169C105.2 41.8791 105.147 41.8551 105.09 41.8471C105.019 41.8305 104.946 41.8305 104.876 41.8471C104.772 41.8772 104.673 41.9242 104.583 41.9866C104.485 42.0509 104.395 42.1284 104.316 42.217C104.235 42.3031 104.166 42.3997 104.111 42.5044C104.057 42.6039 104.021 42.713 104.006 42.8263ZM107.358 41.2118L108.195 40.9855L107.689 42.687L108.162 42.5606L108.802 40.4111L107.028 40.8985L106.659 42.1212L106.555 42.478C106.538 42.5337 106.511 42.5852 106.475 42.6303C106.441 42.6684 106.398 42.6956 106.35 42.7087H106.258L106.053 43.1439H106.132C106.167 43.1474 106.202 43.1474 106.237 43.1439C106.405 43.0975 106.56 43.0127 106.693 42.8959C106.766 42.8313 106.831 42.7567 106.885 42.6739C106.945 42.5862 106.992 42.4892 107.023 42.3868L107.124 42.0514V42.0083L107.358 41.2118ZM110.375 40.5938C110.456 40.5688 110.541 40.5599 110.626 40.5679C110.689 40.5746 110.75 40.5986 110.802 40.6373C110.848 40.6776 110.883 40.7304 110.902 40.7896C110.917 40.8658 110.917 40.9442 110.902 41.0204C110.883 41.142 110.845 41.2597 110.789 41.3685C110.728 41.4831 110.652 41.5884 110.563 41.6818C110.474 41.7784 110.373 41.862 110.262 41.9298C110.154 42.0005 110.037 42.0533 109.914 42.0863L109.031 42.3301L109.676 40.1804L110.153 40.0498L109.985 40.7071L110.375 40.5938ZM110.22 41.029L109.835 41.1333L109.647 41.773L110.032 41.6687C110.078 41.6549 110.122 41.6328 110.161 41.6034C110.205 41.5733 110.246 41.5384 110.283 41.4991C110.318 41.4578 110.349 41.4127 110.375 41.364C110.395 41.3196 110.41 41.2728 110.421 41.2248C110.427 41.1932 110.427 41.1605 110.421 41.1292C110.413 41.1045 110.4 41.0821 110.383 41.0639C110.365 41.0453 110.341 41.0332 110.316 41.029C110.284 41.0239 110.251 41.0252 110.22 41.0335V41.029ZM112.365 39.4669L111.892 39.5974L111.248 41.7254L111.725 41.5949L111.976 40.7462L112.868 40.5027L112.612 41.3728L113.089 41.2381L113.734 39.0928L113.257 39.2233L112.993 40.0934L112.102 40.3373L112.365 39.4669ZM115.326 39.245C115.406 39.2201 115.49 39.2114 115.573 39.2188C115.638 39.2229 115.701 39.2473 115.753 39.2885C115.801 39.326 115.835 39.3801 115.849 39.4409C115.866 39.5151 115.866 39.5929 115.849 39.6671C115.831 39.7897 115.792 39.9077 115.732 40.0153C115.609 40.2476 115.428 40.4415 115.209 40.5765C115.102 40.6482 114.985 40.7013 114.861 40.733L113.979 40.9769L114.623 38.8271L115.096 38.6965L114.899 39.358L115.326 39.245ZM115.171 39.6802L114.786 39.7845L114.589 40.4156L114.979 40.3109C115.025 40.2956 115.068 40.2735 115.108 40.2457C115.196 40.1852 115.268 40.1029 115.317 40.0063C115.343 39.9644 115.358 39.9167 115.364 39.8671C115.37 39.8357 115.37 39.8031 115.364 39.7714C115.356 39.7471 115.343 39.7247 115.326 39.7061C115.307 39.6889 115.284 39.6767 115.259 39.6713C115.229 39.6687 115.2 39.6716 115.171 39.6802ZM115.795 40.4677L116.272 40.3372L116.912 38.1919L116.435 38.3225L115.795 40.4677ZM118.326 37.8179L117.854 37.944L117.205 40.0893L117.624 39.976L118.983 38.4227L118.599 39.728L119.072 39.5974L119.72 37.4566L119.301 37.5699L117.941 39.1232L118.326 37.8179ZM119.427 37.0259C119.468 36.9648 119.501 36.8992 119.528 36.8301L119.172 36.8691L119.122 36.9389L119.072 36.9997L119.009 37.0432C118.984 37.0573 118.957 37.0678 118.929 37.0736H118.854C118.84 37.0768 118.826 37.0768 118.812 37.0736C118.811 37.0697 118.811 37.0658 118.81 37.0619L118.81 37.0573C118.81 37.0531 118.81 37.0488 118.81 37.0446C118.811 37.0412 118.811 37.0379 118.812 37.0346C118.812 37.028 118.812 37.0214 118.811 37.0148C118.811 37.0084 118.811 37.002 118.811 36.9956L118.812 36.9779L118.494 37.0867C118.482 37.1443 118.482 37.2035 118.494 37.2608C118.497 37.3069 118.516 37.3504 118.548 37.3827C118.583 37.4154 118.627 37.4339 118.674 37.4349C118.74 37.4486 118.808 37.4486 118.875 37.4349C118.953 37.4134 119.029 37.383 119.101 37.3434C119.167 37.3046 119.229 37.2579 119.285 37.2042C119.338 37.1501 119.386 37.0902 119.427 37.0259ZM121.934 37.8131L123.043 36.5078L123.599 36.3555L122.595 37.5084L122.988 38.4918L122.423 38.6486L122.176 37.9609L121.733 38.47L121.616 38.8703L121.139 39.0009L121.779 36.8556L122.256 36.7251L121.934 37.8131ZM124.765 36.443L125.601 36.2164L125.091 37.9223L125.564 37.7918L126.204 35.6465L124.43 36.1338L124.066 37.3566L123.957 37.7134C123.942 37.7697 123.914 37.8218 123.878 37.8657C123.844 37.9009 123.802 37.9265 123.756 37.9396H123.735H123.706H123.664L123.459 38.3748H123.538H123.643C123.721 38.3505 123.796 38.3201 123.869 38.2836C123.949 38.2394 124.025 38.187 124.095 38.1268C124.168 38.0602 124.234 37.986 124.292 37.905C124.352 37.8164 124.397 37.7178 124.426 37.6132L124.526 37.2826V37.2346L124.765 36.443ZM126.724 37.1299H126.766H126.795L126.883 37.0909C126.911 37.0723 126.935 37.0487 126.954 37.0211L127.134 36.7559L126.891 35.4765L127.414 35.3373L127.548 36.1552L128.247 35.1066L128.77 34.9629L127.339 37.0778C127.295 37.1399 127.246 37.1978 127.193 37.2519C127.138 37.304 127.084 37.3475 127.03 37.3911C126.973 37.4279 126.914 37.4611 126.854 37.4912L126.682 37.5565H126.577H126.498L126.724 37.1299ZM130.332 35.2724C130.244 35.2685 130.157 35.2791 130.072 35.3028L129.696 35.4071L129.8 35.0548L130.713 34.8068L130.838 34.3716L129.453 34.7546L128.809 36.8996L129.646 36.6733C129.722 36.6525 129.796 36.6247 129.867 36.5908C129.941 36.5556 130.011 36.5133 130.076 36.4647C130.145 36.417 130.21 36.3633 130.269 36.3034C130.328 36.2465 130.381 36.1837 130.428 36.1165C130.474 36.0519 130.512 35.9818 130.541 35.9076C130.574 35.8378 130.595 35.7629 130.604 35.6858C130.619 35.6186 130.619 35.5482 130.604 35.481C130.589 35.4231 130.554 35.3725 130.508 35.3377C130.456 35.2999 130.395 35.2772 130.332 35.2724ZM129.44 36.3383L129.591 35.8292L129.93 35.7249C129.959 35.7207 129.989 35.7207 130.018 35.7249C130.04 35.7268 130.062 35.7341 130.081 35.7466C130.1 35.7572 130.114 35.7738 130.123 35.7946C130.129 35.8215 130.129 35.85 130.123 35.8772C130.117 35.9217 130.103 35.9645 130.081 36.0033C130.058 36.0423 130.031 36.0785 130.001 36.1121C129.969 36.1447 129.932 36.1725 129.892 36.1949C129.854 36.2167 129.813 36.234 129.771 36.2471L129.44 36.3383ZM112.079 15.8171L111.903 15.7127C115.107 14.5547 118.479 13.9792 121.871 14.0113C121.871 14.0113 115.732 12.484 110.288 14.7946L109.301 14.2245C111.433 13.2023 113.683 12.471 115.996 12.0489C117.719 11.7604 119.477 11.7825 121.193 12.1141C120.555 11.6806 119.886 11.298 119.193 10.9697C122.599 10.3214 125.562 10.5346 125.52 13.1802C125.52 13.1802 125.173 15.5648 123.114 16.0173C122.407 16.1726 121.46 16.1916 120.421 16.2124C119.394 16.2329 118.277 16.2553 117.218 16.4133C117.066 16.4357 116.894 16.4716 116.704 16.5113L116.704 16.5113C115.64 16.7342 114.004 17.0765 112.079 15.8171ZM127.625 11.2787C127.26 11.8079 127.09 12.6593 126.932 13.4465L126.932 13.4466C126.862 13.7984 126.794 14.1374 126.713 14.4291C125.93 17.2705 128.592 15.456 128.604 12.3926C128.625 11.7486 127.642 11.2787 127.642 11.2787H127.625ZM125.491 23.3102C125.478 23.1902 125.458 23.0711 125.432 22.9534C125.435 22.9346 125.435 22.9156 125.432 22.8968C125.413 22.7895 125.388 22.6851 125.357 22.5835C125.252 22.9149 125.092 23.2243 124.884 23.4973L124.813 23.5843H124.708C123.873 23.4502 123.022 23.4783 122.198 23.667C121.912 23.7377 121.642 23.8647 121.402 24.0412L120.653 24.8636L120.75 24.2239C120.75 24.1802 120.761 24.1365 120.772 24.0928C120.775 24.0813 120.778 24.0698 120.781 24.0583C120.783 24.0482 120.785 24.0382 120.787 24.0281L120.812 23.8498C120.889 23.3564 120.853 22.851 120.708 22.3747C120.649 22.5704 120.579 22.7622 120.498 22.9491C120.471 23.0188 120.441 23.0871 120.406 23.1536C120.352 23.2754 120.294 23.3929 120.231 23.5104L120.101 23.741L119.917 24.0326C119.894 24.0649 119.873 24.098 119.851 24.1309L119.851 24.1311C119.82 24.1778 119.79 24.2241 119.758 24.2674C119.728 24.3075 119.695 24.3502 119.662 24.3934L119.661 24.3937C119.633 24.4301 119.605 24.4668 119.578 24.5027C119.308 24.8476 119.014 25.1721 118.699 25.4729L118.632 25.5382L118.62 25.5492C118.511 25.6499 118.402 25.7506 118.289 25.847C118.038 26.0646 117.783 26.2822 117.527 26.4607C119.124 25.6195 120.785 24.9193 122.494 24.3676C123.637 24.1196 124.641 24.0892 125.328 24.3939H125.357C125.405 24.2943 125.442 24.189 125.466 24.0806C125.522 23.8325 125.536 23.5763 125.508 23.3233L125.491 23.3102ZM125.696 15.9129C125.261 16.5284 124.694 17.0302 124.041 17.3784C123.387 17.7266 122.664 17.9116 121.93 17.9189C121.585 17.9054 121.245 17.8856 120.908 17.866L120.908 17.866C119.068 17.7588 117.284 17.655 114.954 18.589C121.294 18.0755 119.498 22.8751 119.498 22.8751C120.041 22.3292 120.504 21.7032 120.871 21.017C121.32 20.1654 121.688 19.2707 121.972 18.3453C122.027 19.1047 121.966 19.8684 121.792 20.608L124.516 20.0728C124.516 20.0728 124.704 20.038 125.123 19.5854C124.892 20.0554 124.675 20.4035 124.675 20.4035L124.566 21.6828C125.482 20.6559 126.55 17.4054 126.55 17.4054C125.252 17.5573 125.597 16.3925 125.707 16.0191C125.736 15.9218 125.749 15.8782 125.712 15.9259L125.696 15.9129ZM109.937 9.37711C109.146 9.36806 108.357 9.41311 107.572 9.51203C107.579 9.60755 107.595 9.7022 107.618 9.79484C107.7 10.0998 107.852 10.3792 108.062 10.6086C108.656 10.4998 109.263 10.4128 109.849 10.3431C109.907 10.0288 109.942 9.71017 109.953 9.39017L109.937 9.37711ZM111.313 9.52073C111.13 9.47951 110.944 9.45043 110.757 9.43369C110.65 9.72675 110.522 10.0105 110.372 10.2822L111.1 10.2126C111.217 10.0034 111.295 9.77305 111.33 9.53379L111.313 9.52073ZM118.418 24.5198C118.41 24.5374 118.398 24.5537 118.385 24.5678C118.331 24.6459 116.008 26.7653 115.786 26.9173C114.771 27.4245 113.792 28.0062 112.857 28.6581C112.78 28.5659 112.712 28.4651 112.656 28.3576C112.066 27.4789 112.259 23.1752 118.418 24.5198Z" fill="#ADADAD"/>
</svg>
