<svg width="213" height="96" viewBox="0 0 213 96" fill="none" xmlns="http://www.w3.org/2000/svg">
<path d="M34.5137 2.1104V4.22089H38.344H42.1743V16.8297V29.4385H44.4087H46.643V16.8297V4.22089H50.4733H54.3036V2.1104V-7.82013e-05H44.4087H34.5137V2.1104Z" fill="#ADADAD"/>
<path d="M65.4009 0.183912C65.3583 0.292143 62.7516 6.90499 59.6129 14.8815L53.8887 29.3844L56.1975 29.4168C57.4636 29.4277 58.5489 29.4277 58.6127 29.3952C58.6766 29.3735 59.2511 27.9665 59.8895 26.2565L61.0599 23.1611L67.9651 23.1828L74.8703 23.2153L76.0513 26.3215L77.2217 29.4385H79.6263H82.0415L76.2322 14.7192L70.4335 -7.82013e-05H67.9544C65.6882 -7.82013e-05 65.4647 0.0215664 65.4009 0.183912ZM70.6782 12.0567L73.3169 19.0484H67.9757H62.6346L64.9115 13.0092C66.1563 9.69733 67.3586 6.52619 67.5714 5.97422C67.7736 5.42224 67.9651 4.98932 67.997 5.01097C68.0183 5.04344 69.2312 8.20375 70.6782 12.0567Z" fill="#ADADAD"/>
<path d="M85.1272 0.0756817C85.0847 0.10815 85.0527 6.73183 85.0527 14.795V29.4385H92.4474H99.842V27.328V25.2175H94.6817H89.5214V12.6087V-7.82013e-05H87.3616C86.1699 -7.82013e-05 85.1591 0.0323906 85.1272 0.0756817Z" fill="#ADADAD"/>
<path d="M103.672 14.7192V29.4385H111.971H120.27V27.3821V25.3257L114.184 25.3041L108.087 25.2716V21.0507V16.8297L113.386 16.7972L118.674 16.7756V14.7192V12.6628H113.354H108.034V8.44186V4.22089H114.152H120.27V2.1104V-7.82013e-05H111.971H103.672V14.7192Z" fill="#ADADAD"/>
<path d="M125.239 0.0756817C125.196 0.10815 125.164 6.73183 125.164 14.795V29.4385H127.398H129.633L129.654 18.2691L129.686 7.11063L137.815 18.2691L145.944 29.4385H148.167H150.38V14.7192V-7.82013e-05L148.178 0.0215664L145.965 0.0540352L145.912 11.1368L145.858 22.2304L137.719 11.1151L129.58 -7.82013e-05H127.441C126.271 -7.82013e-05 125.27 0.0323906 125.239 0.0756817Z" fill="#ADADAD"/>
<path d="M154.105 2.1104V4.22089H157.936H161.766V16.8297V29.4385H164H166.235V16.8297V4.22089H170.065H173.895V2.1104V-7.82013e-05H164H154.105V2.1104Z" fill="#ADADAD"/>
<path d="M105.96 35.3481C104.342 35.5862 103.438 35.7918 102.385 36.149C96.4688 38.1512 92.2555 43.1298 91.2128 49.3639C91.0213 50.5111 90.9894 50.9873 91.0426 52.6541C91.0851 54.0394 91.1596 54.8944 91.3192 55.6087C92.4151 60.6739 95.6283 64.9057 100.118 67.1894C105.364 69.8735 111.503 69.5379 116.525 66.3127L117.206 65.8798L118.089 66.843C118.897 67.7089 118.983 67.8496 118.993 68.2392C118.993 68.6505 119.1 68.7695 122.855 72.6225C130.314 80.2635 134.623 84.7118 136.389 86.6058L138.177 88.5215L139.964 86.779C140.954 85.8157 141.762 84.9932 141.762 84.9391C141.762 84.885 139.624 82.6446 136.996 79.9497C134.378 77.2547 130.112 72.8714 127.516 70.1981L122.802 65.3278L122.355 65.3494C121.94 65.3711 121.887 65.3386 120.93 64.3646L119.94 63.3472L120.408 62.7627C122.079 60.6739 123.313 57.9898 123.856 55.2516C124.143 53.7364 124.122 50.3379 123.802 48.8119C123.068 45.3918 121.653 42.7402 119.206 40.2509C116.78 37.7724 114.035 36.268 110.726 35.597C109.62 35.3806 106.768 35.229 105.96 35.3481ZM110.801 39.6015C114.854 40.554 118.397 43.3788 119.812 46.788C122.164 52.4484 120.547 58.9531 115.854 62.7627C114.365 63.9749 112.684 64.8191 110.705 65.3386C109.322 65.7066 106.832 65.804 105.417 65.5443C102.672 65.0572 100.331 63.8775 98.384 61.9943C95.8517 59.5267 94.4366 56.4421 94.2451 52.9788C94.1068 50.457 94.9367 47.6755 96.5646 45.262C97.2987 44.1688 99.0543 42.383 100.054 41.7012C101.661 40.6081 103.672 39.7855 105.491 39.45C106.747 39.2336 109.566 39.3093 110.801 39.6015Z" fill="#ADADAD"/>
<path d="M107.748 40.5755C107.12 40.976 106.833 41.7228 107.078 42.318C107.28 42.8051 107.056 43.1839 106.588 43.1839C106.397 43.1839 106.216 43.2272 106.184 43.2813C106.152 43.3354 105.844 43.4112 105.514 43.4545C104.758 43.5519 104.024 43.8224 103.258 44.2986C102.928 44.5043 102.471 44.7099 102.237 44.7532C102.003 44.7857 101.641 44.9156 101.439 45.0238C101.236 45.132 100.853 45.3052 100.587 45.4026C100.321 45.5 99.7788 45.7922 99.3639 46.052C98.9596 46.3009 98.4063 46.6039 98.1403 46.723C97.5019 47.0152 97.2785 47.2966 97.204 47.9027C97.1402 48.4872 97.2572 48.5088 97.6296 47.9568C97.9701 47.4373 98.1935 47.3183 98.4595 47.4914C98.6404 47.5997 98.7255 47.5888 98.9915 47.3832C99.1724 47.2533 99.3107 47.1018 99.3107 47.0585C99.3107 47.0044 99.4277 46.9178 99.5554 46.8745C99.9065 46.7338 102.896 46.2793 103.354 46.3009C103.822 46.3117 104.279 46.7988 104.365 47.3724C104.396 47.5997 104.471 48.0542 104.524 48.3897C104.588 48.7144 104.631 49.2556 104.631 49.5911C104.631 50.024 104.684 50.2621 104.843 50.4678C105.109 50.8033 105.109 50.8899 104.843 51.3228C104.556 51.8098 104.577 52.1129 104.95 52.8705C105.28 53.5523 105.354 54.2017 105.163 54.7212C105.067 54.9593 105.088 55.0351 105.269 55.1649C105.631 55.4247 105.503 55.5221 104.801 55.5221C104.311 55.5221 103.854 55.6087 103.226 55.836C101.566 56.4421 101.481 56.4529 100.768 56.1065L100.141 55.7927L99.8852 56.0957C99.6937 56.323 99.6512 56.4745 99.6937 56.6693C99.7469 56.8858 99.6937 57.0265 99.4384 57.2862C98.8532 57.9032 98.7042 58.7474 99.0979 59.2127L99.3107 59.4725L99.8746 58.8556C100.832 57.7949 100.949 57.7625 105.652 57.4919C107.078 57.4053 107.259 57.3295 107.514 56.6802C107.578 56.4853 107.759 56.1498 107.908 55.9334L108.174 55.5221L108.578 55.8576C108.972 56.1715 108.993 56.1715 109.301 56.02C109.599 55.8576 109.631 55.8576 109.887 56.0957C110.089 56.2689 110.195 56.5395 110.312 57.1131C110.504 58.0872 110.631 58.3361 111.472 59.3318C112.344 60.3816 112.589 60.728 112.983 61.518C113.323 62.2107 113.621 62.3947 113.962 62.1133C114.047 62.0375 114.366 61.8752 114.664 61.7453C115.089 61.583 115.27 61.4315 115.451 61.0959C115.6 60.8254 115.653 60.6306 115.59 60.5656C115.526 60.5007 115.185 60.4466 114.823 60.4466C113.621 60.4141 113.398 60.176 112.653 58.1954C112.451 57.6434 112.185 57.0373 112.068 56.8317C111.951 56.6369 111.78 56.1498 111.695 55.7494C111.44 54.6346 111.344 54.5156 109.95 53.6714C108.844 52.9895 108.642 52.8272 108.769 52.6648C108.823 52.5999 108.865 51.9289 108.844 51.1929C108.833 50.4461 108.886 49.3855 108.961 48.8227C109.035 48.2599 109.099 47.643 109.099 47.4373C109.099 46.9719 109.248 46.9828 109.567 47.5023C109.961 48.1192 110.568 48.5629 112.195 49.3638C113.004 49.7751 113.845 50.2621 114.068 50.4678C114.291 50.6734 114.589 50.8682 114.738 50.9115C114.887 50.9548 115.111 51.0414 115.249 51.1171C115.451 51.2145 115.515 51.2037 115.59 51.0847C115.664 50.9548 115.76 50.9764 116.122 51.1821C116.462 51.3769 116.59 51.4094 116.685 51.3011C116.781 51.2037 116.675 51.0414 116.207 50.5976C115.717 50.1322 115.483 49.9915 115.036 49.8941C114.579 49.7967 114.302 49.6236 113.525 48.9742C111.929 47.6105 111.759 47.4265 111.759 47.1343C111.759 46.907 111.663 46.8204 111.291 46.6472C110.717 46.3983 110.482 46.0736 110.482 45.5325C110.482 45.1861 110.397 45.0238 109.929 44.5259L109.387 43.9415L109.578 43.5302C109.674 43.3138 109.855 42.9458 109.961 42.7293C110.355 41.9392 110.121 41.1708 109.333 40.7271C108.716 40.3699 108.163 40.3158 107.748 40.5755Z" fill="#ADADAD"/>
<path d="M105.683 59.9918C103.736 61.0417 104.449 63.9639 106.652 63.9639C107.854 63.9639 108.684 63.098 108.684 61.8534C108.684 61.2148 108.524 60.8036 108.067 60.3706C107.396 59.7213 106.471 59.5697 105.683 59.9918Z" fill="#ADADAD"/>
<path d="M45.7802 36.1703C42.3223 36.43 39.4282 38.5513 38.3855 41.5601C38.0025 42.6749 37.8855 43.6273 37.9493 45.0127C38.0664 47.7401 39.0984 49.5367 41.4498 51.1168C42.5989 51.8853 43.4182 52.2965 45.6844 53.2273C49.9084 54.959 51.0788 55.7166 51.8129 57.1561C52.2279 57.9786 52.3024 59.4072 51.9619 60.3056C50.983 62.9572 47.1208 63.9204 43.8863 62.3295C42.7479 61.7667 41.5349 60.587 40.9923 59.5047C40.7901 59.0934 40.588 58.7687 40.5454 58.7687C40.4709 58.7687 38.7899 59.7861 37.0343 60.9008L36.6406 61.1497L36.8641 61.6151C37.8855 63.6499 40.056 65.6629 42.2159 66.5937C45.4823 68.0007 49.1211 67.9466 52.1215 66.453C55.4305 64.8187 57.0477 61.81 56.7285 57.8704C56.4838 54.6992 54.8453 52.5022 51.4193 50.7488C50.9405 50.5107 49.6105 49.9263 48.472 49.4501C44.7056 47.8808 43.4288 47.0474 42.8117 45.7378C42.2265 44.4823 42.4499 42.8372 43.3756 41.8199C45.1844 39.8068 48.9828 40.0774 51.2809 42.3718L52.047 43.1511L53.6749 41.6359L55.2921 40.1098L54.3984 39.2332C52.0896 36.9712 49.1104 35.9105 45.7802 36.1703Z" fill="#ADADAD"/>
<path d="M75.2098 36.1593C66.6767 36.733 60.2609 44.2874 60.8993 53.0108C61.3142 58.5846 64.4317 63.3792 69.2728 65.8793C71.1666 66.8642 72.8903 67.3512 75.2098 67.5569C79.2529 67.9032 83.8599 66.2148 86.9454 63.2601L87.7328 62.5025L85.9985 60.9657L84.2642 59.4396L83.6152 60.0457C79.4976 63.9312 72.9328 63.8662 68.8046 59.9158C67.4002 58.5738 66.4426 56.9503 65.8361 54.9264C65.5595 54.0065 65.5382 53.8333 65.5382 51.8419C65.5382 49.8504 65.5595 49.6773 65.8361 48.7573C67.0065 44.8719 69.7516 42.1661 73.6032 41.1055C74.3373 40.8998 74.731 40.8674 76.3269 40.8674C77.891 40.8674 78.3166 40.9106 79.0082 41.1055C80.8063 41.6033 82.3916 42.4908 83.6577 43.6813L84.2748 44.2658L85.9985 42.7289L87.7221 41.2029L87.371 40.8241C85.8495 39.2114 83.3917 37.6962 80.9978 36.8953C79.0294 36.2351 77.2951 36.0186 75.2098 36.1593Z" fill="#ADADAD"/>
<path d="M126.867 46.8639C126.867 53.4984 126.91 57.6437 126.984 58.3147C127.229 60.5659 128.101 62.4058 129.74 64.0833C131.751 66.1397 134.198 67.2328 137.464 67.5467C140.699 67.8497 143.987 67.0272 146.391 65.2847C148.349 63.8777 149.658 61.9945 150.296 59.6892L150.541 58.8234L150.573 47.6432L150.605 36.4739H148.253H145.912V46.7882C145.912 53.5959 145.87 57.319 145.795 57.7519C145.742 58.0982 145.476 58.8342 145.221 59.3753C144.508 60.8797 143.231 62.0378 141.582 62.6655C139.795 63.3474 137.794 63.3582 136.007 62.7088C134.89 62.2975 134.326 61.9296 133.432 61.0313C132.772 60.3602 132.528 60.0247 132.198 59.2996C131.964 58.8017 131.73 58.0982 131.666 57.7519C131.591 57.319 131.549 53.7366 131.549 46.7882V36.4739H129.208H126.867V46.8639Z" fill="#ADADAD"/>
<path d="M154.318 38.6923V40.9111H158.308H162.298V54.061V67.2109H164.639H166.98V54.061V40.9111H170.97H174.96V38.6923V36.4736H164.639H154.318V38.6923Z" fill="#ADADAD"/>
<path d="M105.588 87.7095C104.194 88.045 103.864 88.1641 103.353 88.5429C101.832 89.6577 101.981 93.2292 103.587 94.0626C104.534 94.5497 106.013 94.2683 106.588 93.4674C107.237 92.5799 107.226 91.5084 106.577 90.6101C105.875 89.6577 104.3 89.5494 103.385 90.4044L103.141 90.6209V90.3612C103.141 89.9282 103.598 89.2572 104.056 88.9975C104.3 88.8568 105.003 88.6403 105.63 88.4996C106.258 88.3697 106.769 88.2182 106.758 88.1749C106.758 88.1316 106.758 87.9476 106.758 87.7745C106.758 87.5905 106.726 87.4498 106.684 87.4606C106.63 87.4714 106.141 87.5796 105.588 87.7095ZM105.63 90.8157C106.769 91.7249 106.162 93.6189 104.737 93.6189C103.311 93.6189 102.704 91.7249 103.843 90.8157C104.056 90.6426 104.279 90.5884 104.737 90.5884C105.194 90.5884 105.417 90.6426 105.63 90.8157Z" fill="#ADADAD"/>
<path d="M88.7773 88.6837V89.582L88.256 89.6469C87.2452 89.766 86.3089 90.5019 86.1599 91.292C85.8726 92.883 86.66 94.0302 88.2134 94.2467L88.7241 94.3224L88.756 95.1666L88.7879 96H89.1497H89.5114L89.5434 95.1666L89.5753 94.3224L90.0966 94.2467C90.8946 94.1276 91.5436 93.738 91.9054 93.1536C92.1607 92.7423 92.2139 92.5366 92.2139 91.963C92.2139 91.2054 92.0543 90.805 91.5756 90.3612C91.15 89.9499 90.6499 89.7227 90.0434 89.6469L89.5221 89.582V88.6837V87.7745H89.1497H88.7773V88.6837ZM88.756 91.963L88.7241 93.5648L88.4049 93.5324C87.9474 93.4782 87.3835 93.1752 87.1494 92.8505C86.8515 92.4392 86.8089 91.7033 87.043 91.2379C87.2558 90.8158 87.99 90.372 88.4794 90.372H88.7879L88.756 91.963ZM90.5861 90.6101C91.1925 90.924 91.4692 91.4219 91.4053 92.0929C91.3202 92.8722 90.735 93.4349 89.8945 93.5324L89.5753 93.5648L89.5434 91.963L89.5114 90.372H89.82C89.9796 90.372 90.3307 90.4803 90.5861 90.6101Z" fill="#ADADAD"/>
<path d="M37.918 91.9413V94.2683H38.2904H38.6628V93.2942V92.3201H39.1735L39.6735 92.3309L40.4183 93.2942C41.1525 94.2466 41.1737 94.2683 41.6206 94.2683C41.8653 94.2683 42.0675 94.2466 42.0675 94.2142C42.0675 94.1817 41.6844 93.6622 41.2163 93.0561C40.7481 92.4608 40.3651 91.9197 40.3651 91.8547C40.3651 91.7249 41.9611 89.6901 42.0249 89.7443C42.0462 89.7659 42.4931 90.7833 43.0251 91.9954C43.6422 93.4132 43.972 94.2899 43.9401 94.4414C43.9082 94.5605 43.7805 94.7986 43.6528 94.9501C43.4826 95.1882 43.3442 95.2423 42.9719 95.2423C42.7165 95.2423 42.4718 95.1882 42.4399 95.1341C42.3228 94.9393 42.0994 95.0151 41.9824 95.2965C41.8121 95.6753 41.8015 95.6644 42.2271 95.8484C43.0038 96.1731 43.9294 95.9458 44.3018 95.3289C44.4189 95.1341 44.8125 94.2899 45.1743 93.4565C45.536 92.6232 46.0574 91.4218 46.334 90.7724L46.8447 89.6144H46.4404H46.0255L45.2488 91.4543C44.5359 93.1643 44.4614 93.2834 44.3444 93.0561C44.2699 92.9154 43.9082 92.0928 43.5358 91.2162L42.8655 89.6144H42.0036H41.1418L40.4077 90.5884L39.6842 91.5625H39.1735H38.6628V90.5884V89.6144H38.2904H37.918V91.9413Z" fill="#ADADAD"/>
<path d="M47.707 92.8072V96H48.0794H48.4518V94.7986V93.6081L48.8348 93.9112C49.1434 94.1384 49.3668 94.2142 49.8988 94.2467C50.899 94.3116 51.6331 93.9653 52.0481 93.2077C52.7396 91.9414 52.2396 90.3179 50.9841 89.7876C50.2499 89.4737 49.1753 89.6253 48.6433 90.1231C48.4625 90.2855 48.4518 90.2746 48.4518 89.9608C48.4518 89.6361 48.4305 89.6144 48.0794 89.6144H47.707V92.8072ZM50.8138 90.556C51.4629 90.9457 51.7182 91.9522 51.3671 92.7206C50.9309 93.6406 49.6647 93.8462 48.9412 93.1211C48.6008 92.7639 48.4199 92.1254 48.5157 91.6059C48.5901 91.1838 49.0051 90.621 49.3456 90.4803C49.7286 90.3179 50.4734 90.3612 50.8138 90.556Z" fill="#ADADAD"/>
<path d="M54.4309 89.831C53.5797 90.2206 53.1328 90.9566 53.1328 91.9415C53.1328 92.6341 53.335 93.1644 53.7818 93.6082C54.2925 94.1277 54.7713 94.29 55.6544 94.2467C56.3141 94.2143 56.4631 94.171 56.8142 93.8788C57.3249 93.4567 57.3568 93.3484 57.0163 93.1212C56.7503 92.948 56.7291 92.948 56.495 93.1753C55.9204 93.7164 54.9309 93.684 54.3883 93.1103C53.8138 92.5042 53.835 91.3137 54.4096 90.7509C54.6649 90.502 54.8458 90.4262 55.3352 90.3938C55.8672 90.3613 56.0055 90.3938 56.3673 90.6427C56.7291 90.8916 56.8142 90.9133 57.0376 90.7942C57.3462 90.621 57.3462 90.4695 57.0376 90.1773C56.4418 89.6037 55.2608 89.4413 54.4309 89.831Z" fill="#ADADAD"/>
<path d="M58.5586 91.9416V94.2686H59.8141C61.7186 94.2577 62.2825 93.9006 62.2825 92.6668C62.2825 92.104 62.0591 91.6819 61.6122 91.4329C61.4845 91.3572 60.9206 91.2706 60.3674 91.2381L59.3566 91.184L59.3247 90.3939L59.2927 89.6147H58.931H58.5586V91.9416ZM60.7291 91.8875C61.2717 92.0065 61.4526 92.2122 61.4632 92.6992C61.4739 93.0131 61.4101 93.1646 61.176 93.3594C60.9313 93.5867 60.7717 93.6192 60.0907 93.6192H59.3034V92.6992V91.7793H59.8141C60.0907 91.7793 60.5057 91.8334 60.7291 91.8875Z" fill="#ADADAD"/>
<path d="M63.0293 91.9416V94.2686H63.4549H63.8805V91.9416V89.6147H63.4549H63.0293V91.9416Z" fill="#ADADAD"/>
<path d="M68.1343 90.3504C68.1343 90.7508 68.0811 91.4976 68.0279 91.9955C67.9109 92.9803 67.6874 93.4349 67.2937 93.489C67.081 93.5215 67.0703 93.5864 67.0703 94.4415V95.3506H67.4427H67.8151V94.8094V94.2683H69.7303H71.6454V94.8094V95.3506H72.0178H72.3902V94.4306V93.5107H72.071H71.7518L71.7305 91.5842L71.6986 89.6685L69.9218 89.636L68.1343 89.6144V90.3504ZM70.9006 91.9413V93.5107H69.6239H68.3471L68.5067 93.2617C68.6769 92.9803 68.8791 91.7898 68.8791 90.9348V90.372H69.8899H70.9006V91.9413Z" fill="#ADADAD"/>
<path d="M73.7423 91.0427C73.6465 93.0125 73.4869 93.4996 72.9443 93.5428C72.7847 93.5537 72.7209 93.6511 72.6889 93.9C72.657 94.2139 72.6783 94.2572 72.9549 94.3113C73.8168 94.4844 74.2636 93.716 74.4445 91.7354L74.5615 90.3717H75.551H76.5405V92.3199V94.268H76.9129H77.2853V91.941V89.6141H75.551H73.8061L73.7423 91.0427Z" fill="#ADADAD"/>
<path d="M79.7002 89.777C78.849 90.0801 78.4447 90.8268 78.6681 91.6602C78.7639 92.0498 79.2108 92.5585 79.5299 92.6668C79.647 92.71 79.3065 93.262 78.6362 94.1279C78.5617 94.2361 78.6468 94.2686 78.998 94.2686C79.4555 94.2577 79.4768 94.2469 79.9449 93.5326L80.4237 92.8074L81.1472 92.775L81.8601 92.7425V93.5109V94.2686H82.2325H82.6048V91.9416V89.6147H81.36C80.5726 89.6255 79.9449 89.6796 79.7002 89.777ZM81.8601 91.2922V92.2122H81.1153C79.8917 92.2122 79.2959 91.8009 79.4768 91.0649C79.6044 90.5563 79.9875 90.3723 80.9663 90.3723H81.8601V91.2922Z" fill="#ADADAD"/>
<path d="M92.6072 89.7118C92.6072 89.7659 93.0434 90.7941 93.5754 92.0063C94.1819 93.4132 94.5117 94.2899 94.4798 94.4414C94.4479 94.5605 94.3202 94.7986 94.1925 94.9501C94.0223 95.1882 93.884 95.2423 93.5116 95.2423C93.2562 95.2423 93.0115 95.1882 92.9796 95.1341C92.8626 94.9393 92.6391 95.0151 92.5221 95.2965C92.3519 95.6753 92.3412 95.6644 92.7668 95.8484C93.5435 96.1731 94.4692 95.9458 94.8416 95.3289C94.9586 95.1341 95.3523 94.2899 95.714 93.4565C96.0758 92.6232 96.5971 91.4218 96.8738 90.7724L97.3845 89.6144H96.9802H96.5652L95.7885 91.4543C95.0756 93.1643 95.0012 93.2834 94.8841 93.0561C94.8096 92.9154 94.4479 92.0928 94.0755 91.2162L93.4052 89.6144H93.0115C92.7881 89.6144 92.6072 89.6577 92.6072 89.7118Z" fill="#ADADAD"/>
<path d="M97.502 89.9935V90.3723H98.3531H99.2043V92.3204V94.2686H99.6299H100.055V92.3204V90.3723H100.853H101.651V89.9935V89.6147H99.5767H97.502V89.9935Z" fill="#ADADAD"/>
<path d="M109.035 89.8852C108.141 90.329 107.769 91.0433 107.843 92.1581C107.918 93.446 108.801 94.2577 110.12 94.2686C110.876 94.2686 111.376 94.0846 111.801 93.6516C112.727 92.7317 112.716 91.1191 111.801 90.2424C111.088 89.5606 109.961 89.4199 109.035 89.8852ZM110.993 90.5887C111.801 91.0974 111.886 92.5369 111.142 93.2187C110.61 93.7058 109.588 93.6516 109.077 93.1105C108.365 92.3529 108.599 90.8377 109.471 90.4805C109.875 90.3073 110.631 90.3615 110.993 90.5887Z" fill="#ADADAD"/>
<path d="M114.066 91.0427C113.971 93.0125 113.811 93.4996 113.269 93.5428C113.109 93.5537 113.045 93.6511 113.013 93.9C112.981 94.2139 113.003 94.2572 113.279 94.3113C114.141 94.4844 114.588 93.716 114.769 91.7354L114.886 90.3717H115.875H116.865V92.3199V94.268H117.237H117.61V91.941V89.6141H115.875H114.13L114.066 91.0427Z" fill="#ADADAD"/>
<path d="M119.312 91.9416V94.2686H120.515C121.164 94.2686 121.877 94.2144 122.089 94.1603C123.228 93.8356 123.526 92.223 122.568 91.5303C122.302 91.3355 122.047 91.2814 121.174 91.2381L120.11 91.184L120.079 90.3939L120.047 89.6147H119.685H119.312V91.9416ZM121.962 92.0823C122.324 92.3529 122.387 92.9373 122.089 93.3053C121.909 93.5326 121.781 93.5651 120.972 93.6084L120.057 93.6408V92.6992V91.7468L120.877 91.8117C121.44 91.855 121.781 91.9416 121.962 92.0823Z" fill="#ADADAD"/>
<path d="M124.207 91.9416V94.2686H124.579H124.952V93.2945V92.3204H126.282H127.612V93.2945V94.2686H127.984H128.357V91.9416V89.6147H127.984H127.612V90.5887V91.5628H126.282H124.952V90.5887V89.6147H124.579H124.207V91.9416Z" fill="#ADADAD"/>
<path d="M130.059 91.9416V94.2686H131.314C133.219 94.2577 133.783 93.9006 133.783 92.6668C133.783 92.104 133.559 91.6819 133.112 91.4329C132.985 91.3572 132.421 91.2706 131.867 91.2381L130.857 91.184L130.825 90.3939L130.793 89.6147H130.431H130.059V91.9416ZM132.229 91.8875C132.772 92.0065 132.953 92.2122 132.963 92.6992C132.974 93.0131 132.91 93.1646 132.676 93.3594C132.431 93.5867 132.272 93.6192 131.591 93.6192H130.803V92.6992V91.7793H131.314C131.591 91.7793 132.006 91.8334 132.229 91.8875Z" fill="#ADADAD"/>
<path d="M134.527 91.9416V94.2686H134.953H135.379V91.9416V89.6147H134.953H134.527V91.9416Z" fill="#ADADAD"/>
<path d="M136.4 89.7445C136.442 89.8203 136.804 90.3182 137.208 90.8377C137.602 91.368 137.932 91.8442 137.932 91.8983C137.932 91.9849 137.442 92.6559 136.304 94.1279C136.23 94.2361 136.315 94.2686 136.676 94.2686C137.145 94.2686 137.155 94.2577 137.772 93.4027C138.113 92.9265 138.421 92.5369 138.453 92.5369C138.485 92.5477 138.794 92.9373 139.134 93.4027C139.751 94.2577 139.762 94.2686 140.241 94.2686H140.72L140.156 93.5326C139.847 93.1321 139.432 92.6018 139.23 92.3529L138.868 91.8983L139.443 91.1624C139.762 90.7619 140.156 90.2424 140.315 90.0151L140.613 89.6147H140.156C139.698 89.6255 139.677 89.6363 139.102 90.4264C138.783 90.881 138.496 91.2273 138.453 91.2165C138.411 91.1948 138.123 90.8377 137.804 90.4264C137.272 89.7229 137.208 89.6688 136.772 89.6363C136.421 89.6038 136.336 89.6363 136.4 89.7445Z" fill="#ADADAD"/>
<path d="M144.868 89.831C144.017 90.2206 143.57 90.9566 143.57 91.9415C143.57 92.6341 143.772 93.1644 144.219 93.6082C144.73 94.1277 145.209 94.29 146.092 94.2467C146.752 94.2143 146.901 94.171 147.252 93.8788C147.762 93.4567 147.794 93.3484 147.454 93.1212C147.188 92.948 147.167 92.948 146.932 93.1753C146.358 93.7164 145.368 93.684 144.826 93.1103C144.251 92.5042 144.273 91.3137 144.847 90.7509C145.102 90.502 145.283 90.4262 145.773 90.3938C146.305 90.3613 146.443 90.3938 146.805 90.6427C147.167 90.8916 147.252 90.9133 147.475 90.7942C147.784 90.621 147.784 90.4695 147.475 90.1773C146.879 89.6037 145.698 89.4413 144.868 89.831Z" fill="#ADADAD"/>
<path d="M148.891 91.9416V94.2686H149.263H149.635V93.2945V92.3204H150.146L150.646 92.3312L151.391 93.2945C152.125 94.2469 152.146 94.2686 152.593 94.2686C152.838 94.2686 153.04 94.2469 153.04 94.2144C153.04 94.182 152.657 93.6625 152.189 93.0564C151.721 92.4611 151.338 91.92 151.338 91.855C151.338 91.8009 151.7 91.2922 152.136 90.7403C152.572 90.1883 152.934 89.7012 152.934 89.6688C152.934 89.6363 152.753 89.6147 152.519 89.6147C152.125 89.6147 152.083 89.658 151.38 90.5887L150.657 91.5628H150.146H149.635V90.5887V89.6147H149.263H148.891V91.9416Z" fill="#ADADAD"/>
<path d="M154.636 89.7121C154.487 89.7662 154.21 89.8852 154.019 89.9826C153.678 90.1558 153.678 90.1666 153.838 90.4805L154.008 90.8052L154.402 90.5996C154.795 90.3939 155.125 90.3398 155.764 90.3615C156.189 90.3723 156.657 90.8377 156.657 91.2381V91.5303L155.604 91.5953C154.434 91.6602 153.976 91.8334 153.731 92.3204C153.37 93.0347 153.678 93.8465 154.423 94.1603C154.912 94.366 156.051 94.2577 156.445 93.9655L156.764 93.7166V93.998C156.764 94.2361 156.806 94.2686 157.136 94.2686H157.509V92.6126C157.509 90.5996 157.37 90.1666 156.636 89.8311C156.157 89.6147 155.157 89.5497 154.636 89.7121ZM156.657 92.5802C156.657 93.1863 156.285 93.5326 155.562 93.5975C154.742 93.6625 154.402 93.446 154.444 92.8832C154.487 92.3529 154.785 92.2122 155.838 92.2122H156.657V92.5802Z" fill="#ADADAD"/>
<path d="M158.254 89.7118C158.254 89.7659 158.69 90.7941 159.222 92.0063C159.828 93.4132 160.158 94.2899 160.126 94.4414C160.094 94.5605 159.967 94.7986 159.839 94.9501C159.669 95.1882 159.53 95.2423 159.158 95.2423C158.903 95.2423 158.658 95.1882 158.626 95.1341C158.509 94.9393 158.286 95.0151 158.169 95.2965C157.998 95.6753 157.988 95.6644 158.413 95.8484C159.19 96.1731 160.116 95.9458 160.488 95.3289C160.605 95.1341 160.999 94.2899 161.361 93.4565C161.722 92.6232 162.244 91.4218 162.52 90.7724L163.031 89.6144H162.627H162.212L161.435 91.4543C160.722 93.1643 160.648 93.2834 160.531 93.0561C160.456 92.9154 160.094 92.0928 159.722 91.2162L159.052 89.6144H158.658C158.435 89.6144 158.254 89.6577 158.254 89.7118Z" fill="#ADADAD"/>
<path d="M163.148 89.9935V90.3723H164H164.851V92.3204V94.2686H165.276H165.702V92.3204V90.3723H166.5H167.298V89.9935V89.6147H165.223H163.148V89.9935Z" fill="#ADADAD"/>
<path d="M168.83 89.8852C167.936 90.329 167.564 91.0433 167.638 92.1581C167.713 93.446 168.596 94.2577 169.915 94.2686C170.671 94.2686 171.171 94.0846 171.596 93.6516C172.522 92.7317 172.511 91.1191 171.596 90.2424C170.883 89.5606 169.755 89.4199 168.83 89.8852ZM170.788 90.5887C171.596 91.0974 171.681 92.5369 170.937 93.2187C170.405 93.7058 169.383 93.6516 168.872 93.1105C168.16 92.3529 168.394 90.8377 169.266 90.4805C169.67 90.3073 170.426 90.3615 170.788 90.5887Z" fill="#ADADAD"/>
<path d="M173.576 91.9308V94.2686H174.885C176.417 94.2686 176.874 94.1603 177.236 93.7166C177.715 93.143 177.513 92.1472 176.874 91.9416C176.672 91.8767 176.683 91.855 176.97 91.6061C177.343 91.2922 177.438 90.8701 177.247 90.4047C177.002 89.8203 176.587 89.6796 174.991 89.6363L173.576 89.593V91.9308ZM176.289 90.5346C176.928 91.1732 176.311 91.6602 174.885 91.671H174.321V90.9675V90.264H175.172C175.949 90.264 176.055 90.2965 176.289 90.5346ZM176.289 92.3421C176.566 92.4719 176.715 92.7966 176.64 93.143C176.587 93.4677 176.13 93.6192 175.204 93.6192H174.321V92.9157V92.2122H175.172C175.63 92.2122 176.14 92.2663 176.289 92.3421Z" fill="#ADADAD"/>
</svg>
