<svg width="48" height="48" viewBox="0 0 48 48" fill="none" xmlns="http://www.w3.org/2000/svg">
<g clip-path="url(#clip0_455_4088)">
<mask id="mask0_455_4088" style="mask-type:luminance" maskUnits="userSpaceOnUse" x="0" y="0" width="48" height="48">
<path d="M47.763 0H0.238281V48H47.763V0Z" fill="white"/>
</mask>
<g mask="url(#mask0_455_4088)">
<path d="M0.238281 23.04C0.238281 12.1788 0.238281 6.74827 3.57901 3.37413C6.91974 0 12.2965 0 23.0502 0H24.9512C35.7048 0 41.0816 0 44.4223 3.37413C47.763 6.74827 47.763 12.1788 47.763 23.04V24.96C47.763 35.8212 47.763 41.2517 44.4223 44.6259C41.0816 48 35.7048 48 24.9512 48H23.0502C12.2965 48 6.91974 48 3.57901 44.6259C0.238281 41.2517 0.238281 35.8212 0.238281 24.96V23.04Z" fill="#0077FF"/>
<path d="M25.5251 34.5801C14.6934 34.5801 8.51525 27.0801 8.25781 14.6001H13.6836C13.8618 23.7601 17.8617 27.6401 21.03 28.4401V14.6001H26.1391V22.5C29.2678 22.16 32.5545 18.5601 33.6635 14.6001H38.7725C37.921 19.4801 34.3566 23.0801 31.822 24.5601C34.3566 25.76 38.4163 28.9001 39.9608 34.5801H34.3369C33.1289 30.7801 30.1193 27.8401 26.1391 27.4401V34.5801H25.5251Z" fill="white"/>
</g>
</g>
<defs>
<clipPath id="clip0_455_4088">
<rect width="48" height="48" fill="white"/>
</clipPath>
</defs>
</svg>
