<svg width="16" height="22" viewBox="0 0 16 22" fill="none" xmlns="http://www.w3.org/2000/svg">
<g clip-path="url(#clip0_1031_5266)">
<path fill-rule="evenodd" clip-rule="evenodd" d="M8 19C12.4183 19 16 15.4183 16 11C16 6.58172 12.4183 3 8 3C3.58172 3 0 6.58172 0 11C0 15.4183 3.58172 19 8 19ZM5.70711 7.29289C5.31658 6.90237 4.68342 6.90237 4.29289 7.29289C3.90237 7.68342 3.90237 8.31658 4.29289 8.70711L6.58579 11L4.29289 13.2929C3.90237 13.6834 3.90237 14.3166 4.29289 14.7071C4.68342 15.0976 5.31658 15.0976 5.70711 14.7071L8 12.4142L10.2929 14.7071C10.6834 15.0976 11.3166 15.0976 11.7071 14.7071C12.0976 14.3166 12.0976 13.6834 11.7071 13.2929L9.41421 11L11.7071 8.70711C12.0976 8.31658 12.0976 7.68342 11.7071 7.29289C11.3166 6.90237 10.6834 6.90237 10.2929 7.29289L8 9.58579L5.70711 7.29289Z" fill="#858585"/>
</g>
<defs>
<clipPath id="clip0_1031_5266">
<rect width="16" height="16" fill="white" transform="translate(0 3)"/>
</clipPath>
</defs>
</svg>
