<svg width="16" height="12" viewBox="0 0 16 12" fill="none" xmlns="http://www.w3.org/2000/svg">
<path fill-rule="evenodd" clip-rule="evenodd" d="M0.0174511 6.1915C0.0484285 6.33404 0.103766 6.42646 0.21444 6.6113C1.12902 8.13871 3.85134 12 8 12C12.1487 12 14.871 8.13871 15.7856 6.6113L15.7856 6.61129C15.8962 6.42646 15.9516 6.33404 15.9825 6.1915C16.0058 6.08443 16.0058 5.91557 15.9825 5.8085C15.9516 5.66596 15.8962 5.57354 15.7856 5.38871L15.7856 5.3887C14.871 3.86129 12.1487 0 8 0C3.85134 0 1.12902 3.86129 0.21444 5.3887C0.103766 5.57354 0.0484285 5.66596 0.0174511 5.8085C-0.00581704 5.91557 -0.00581704 6.08443 0.0174511 6.1915ZM8 8C9.10457 8 10 7.10457 10 6C10 4.89543 9.10457 4 8 4C6.89543 4 6 4.89543 6 6C6 7.10457 6.89543 8 8 8Z" fill="#858585"/>
</svg>
