<svg width="192" height="32" viewBox="0 0 192 32" fill="none" xmlns="http://www.w3.org/2000/svg">
<path d="M12.5433 32L0 24.6312V9.92773L4.84351 7.0883C7.18712 5.71961 9.84323 4.9993 12.5466 4.9993C15.2501 4.9993 17.9062 5.71961 20.2498 7.0883L25.0866 9.92773V24.6312L12.5433 32ZM3.71179 22.4623L12.5433 27.6417L21.3748 22.4623V12.1103L18.3905 10.3588C16.6126 9.32023 14.5976 8.77366 12.5466 8.77366C10.4957 8.77366 8.48065 9.32023 6.70277 10.3588L3.71179 12.1103V22.4623Z" fill="#DB5913"/>
<path d="M18.8756 0H6.21775V3.76994H18.8756V0Z" fill="#DB5913"/>
<path fill-rule="evenodd" clip-rule="evenodd" d="M40.8302 23.0517V25.8966H44.1469V23.0517C45.1738 23.2275 46.1545 23.1859 47.0889 22.9268C48.0233 22.6678 48.8514 22.2098 49.573 21.553C50.2946 20.8869 50.8636 20.0357 51.2799 18.9995C51.7055 17.9541 51.9183 16.7329 51.9183 15.3359C51.9183 13.9389 51.7055 12.713 51.2799 11.6584C50.8636 10.6037 50.2946 9.73864 49.573 9.06327C48.8514 8.3879 48.0233 7.91607 47.0889 7.64777C46.1545 7.37947 45.1738 7.33321 44.1469 7.50899V5.91309H40.8302V7.50899C39.8032 7.33321 38.8226 7.37947 37.8882 7.64777C36.963 7.91607 36.1396 8.3879 35.418 9.06327C34.6963 9.73864 34.1274 10.6037 33.711 11.6584C33.2947 12.713 33.0865 13.9389 33.0865 15.3359C33.0865 16.7329 33.2947 17.9541 33.711 18.9995C34.1274 20.0357 34.6963 20.8869 35.418 21.553C36.1396 22.2098 36.963 22.6678 37.8882 22.9268C38.8226 23.1859 39.8032 23.2275 40.8302 23.0517ZM40.8302 10.5204V19.9848C40.0253 20.1051 39.3407 20.0588 38.7763 19.8461C38.2212 19.6333 37.7725 19.3002 37.4302 18.8469C37.0971 18.3843 36.8566 17.8477 36.7086 17.2371C36.5605 16.6265 36.4865 15.9927 36.4865 15.3359C36.4865 14.679 36.5605 14.036 36.7086 13.4069C36.8566 12.7778 37.0971 12.2273 37.4302 11.7555C37.7725 11.2744 38.2212 10.9182 38.7763 10.6869C39.3407 10.4464 40.0253 10.3909 40.8302 10.5204ZM46.2008 19.8461C45.6457 20.0588 44.961 20.1051 44.1469 19.9848V10.5204C44.961 10.3909 45.6457 10.4556 46.2008 10.7147C46.7559 10.9737 47.2046 11.353 47.5469 11.8526C47.8892 12.343 48.1344 12.9073 48.2824 13.5457C48.4397 14.1748 48.5183 14.8039 48.5183 15.433C48.5183 16.0621 48.4397 16.6727 48.2824 17.2648C48.1344 17.857 47.8892 18.3797 47.5469 18.833C47.2046 19.2863 46.7559 19.624 46.2008 19.8461Z" fill="#DB5913"/>
<path d="M72.7664 5.91309V25.8966H76.1108V16.571L84.5345 25.8966H88.781L79.608 15.7106L88.1981 5.91309H84.0904L76.1108 15.1832V5.91309H72.7664Z" fill="#DB5913"/>
<path d="M93.3733 25.8966L96.0101 20.5122L89.1129 5.91309H92.8876L97.7586 16.9873L102.782 5.91309H106.349L96.9398 25.8966H93.3733Z" fill="#DB5913"/>
<path d="M105.069 23.0934V25.8966C106.124 26.1187 106.994 26.1464 107.678 25.9799C108.372 25.8134 108.932 25.4849 109.358 24.9946C109.792 24.495 110.139 23.8659 110.398 23.1073C110.657 22.3394 110.879 21.4743 111.065 20.5122C111.268 19.4575 111.439 18.3843 111.578 17.2926C111.726 16.2009 111.846 15.1462 111.939 14.1285C112.041 13.1109 112.119 12.1672 112.175 11.2975C112.239 10.4186 112.295 9.66925 112.341 9.04939H119.28V25.8966H122.624V5.91309H109.247C109.21 6.68097 109.163 7.59226 109.108 8.64694C109.052 9.70163 108.974 10.8303 108.872 12.033C108.77 13.2265 108.645 14.4431 108.497 15.6828C108.358 16.9133 108.183 18.0975 107.97 19.2354C107.822 20.0311 107.669 20.6926 107.512 21.2199C107.355 21.738 107.17 22.1405 106.957 22.4273C106.753 22.7048 106.499 22.8945 106.194 22.9962C105.888 23.0888 105.514 23.1211 105.069 23.0934Z" fill="#DB5913"/>
<path fill-rule="evenodd" clip-rule="evenodd" d="M126.487 25.8966V5.91309H129.831V12.8934H134.744C134.929 12.8934 135.179 12.9027 135.493 12.9212C135.808 12.9305 136.095 12.9582 136.354 13.0045C137.501 13.1802 138.449 13.5642 139.198 14.1563C139.957 14.7484 140.517 15.4978 140.878 16.4044C141.248 17.3019 141.433 18.2964 141.433 19.3881C141.433 20.489 141.248 21.4928 140.878 22.3995C140.517 23.2969 139.957 24.0417 139.198 24.6338C138.449 25.2259 137.501 25.6098 136.354 25.7856C136.095 25.8226 135.808 25.8504 135.493 25.8689C135.188 25.8874 134.938 25.8966 134.744 25.8966H126.487ZM129.831 22.7603H134.605C134.799 22.7603 135.007 22.7511 135.23 22.7326C135.461 22.7141 135.678 22.6817 135.882 22.6354C136.428 22.4966 136.858 22.2515 137.172 21.8999C137.496 21.5484 137.723 21.1505 137.852 20.7065C137.991 20.2531 138.061 19.8137 138.061 19.3881C138.061 18.9625 137.991 18.5277 137.852 18.0836C137.723 17.6395 137.496 17.2417 137.172 16.8902C136.858 16.5386 136.428 16.2934 135.882 16.1546C135.678 16.0991 135.461 16.0621 135.23 16.0436C135.007 16.0251 134.799 16.0159 134.605 16.0159H129.831V22.7603Z" fill="#DB5913"/>
<path d="M148.744 9.04939V25.8966H152.089V9.04939H158.556V5.91309H142.277V9.04939H148.744Z" fill="#DB5913"/>
<path d="M160.774 25.8966V5.91309H173.681V9.04939H164.119V13.9759H172.015V17.1122H164.119V22.7603H173.681V25.8966H160.774Z" fill="#DB5913"/>
<path d="M181.812 9.04939V25.8966H185.156V9.04939H191.623V5.91309H175.345V9.04939H181.812Z" fill="#DB5913"/>
<path fill-rule="evenodd" clip-rule="evenodd" d="M52.7667 25.9312L59.0671 5.9477H63.9658L70.2662 25.9312H66.8246L65.4439 21.6017H57.5722L56.2083 25.9312H52.7667ZM61.484 9.18375L64.4482 18.4793H58.5558L61.484 9.18375Z" fill="#DB5913"/>
</svg>
