<svg width="16" height="16" viewBox="0 0 16 16" fill="none" xmlns="http://www.w3.org/2000/svg">
<path d="M13.6653 9.18514L12.6866 8.76573C12.1274 8.55602 11.4983 8.69582 11.009 9.11524L9.89056 10.024C7.9333 10.024 5.97604 8.0667 5.97604 6.10944L6.88476 4.99101C7.30418 4.5716 7.44398 3.87258 7.23427 3.31336L6.81486 2.33473C6.46535 1.426 5.55662 0.936686 4.57799 1.00659L2.76054 1.21629C1.6421 1.3561 1.08289 2.40463 1.01298 3.52307C0.663473 8.55602 7.44398 15.3365 12.4769 14.987C13.5954 14.9171 14.6439 14.3579 14.7837 13.2395L14.9934 11.4919C15.0633 10.4434 14.574 9.53465 13.6653 9.18514Z" stroke="#858585" stroke-width="2" stroke-linejoin="round"/>
</svg>
