<svg width="16" height="16" viewBox="0 0 16 16" fill="none" xmlns="http://www.w3.org/2000/svg">
<path fill-rule="evenodd" clip-rule="evenodd" d="M1.96243 6.73543C5.72052 5.18307 8.2265 4.15967 9.48037 3.66521C13.0604 2.25343 13.8043 2.00818 14.2892 2.00009C14.3959 1.99831 14.6343 2.02336 14.7887 2.14219C14.9192 2.24252 14.955 2.37805 14.9722 2.47318C14.9894 2.56831 15.0108 2.785 14.9938 2.95433C14.7998 4.88695 13.9603 9.57691 13.5332 11.7415C13.3525 12.6574 12.9967 12.9645 12.6522 12.9945C11.9036 13.0599 11.3351 12.5255 10.6101 12.0749C9.47546 11.3697 8.83448 10.9308 7.73315 10.2427C6.46037 9.44746 7.28546 9.0104 8.01082 8.29612C8.20064 8.10919 11.4991 5.26471 11.5629 5.00668C11.5709 4.9744 11.5783 4.85411 11.503 4.79059C11.4276 4.72707 11.3163 4.74879 11.236 4.76606C11.1223 4.79055 9.3097 5.9264 5.79841 8.1736C5.28392 8.50854 4.81791 8.67174 4.40039 8.66319C3.9401 8.65376 3.05469 8.41644 2.39648 8.21359C1.58916 7.96478 0.947519 7.83324 1.00339 7.41069C1.03249 7.1906 1.35217 6.96551 1.96243 6.73543Z" fill="#858585"/>
</svg>
