<svg width="16" height="16" viewBox="0 0 16 16" fill="none" xmlns="http://www.w3.org/2000/svg">
<path d="M8 1C4.13425 1 1 4.13425 1 8C1 9.3132 1.36887 10.5375 1.99805 11.5877L1.06266 15L4.54785 14.0851C5.56712 14.6646 6.74379 15 8 15C11.8657 15 15 11.8657 15 8C15 4.13425 11.8657 1 8 1ZM5.604 4.7347C5.71775 4.7347 5.83463 4.73401 5.93555 4.73926C6.06038 4.74217 6.19625 4.75132 6.32633 5.0389C6.48092 5.38073 6.81751 6.23828 6.86068 6.3252C6.90384 6.41211 6.93443 6.5145 6.87435 6.62826C6.81718 6.74492 6.78745 6.81553 6.70345 6.91878C6.61653 7.01912 6.5213 7.14373 6.44255 7.21956C6.35563 7.30648 6.26588 7.40178 6.36621 7.57503C6.46654 7.74828 6.81499 8.31624 7.33008 8.77474C7.99216 9.36624 8.55078 9.54801 8.72461 9.63493C8.89844 9.72184 8.99911 9.7083 9.09945 9.59163C9.2027 9.47788 9.53307 9.08757 9.64974 8.91374C9.76349 8.7399 9.87961 8.76998 10.0371 8.82715C10.1969 8.88432 11.0493 9.3042 11.2231 9.39111C11.397 9.47803 11.5109 9.52105 11.5547 9.59163C11.5996 9.66455 11.5996 10.0117 11.4556 10.4165C11.3115 10.8208 10.604 11.2117 10.2866 11.2391C9.96637 11.2688 9.66749 11.383 8.20508 10.8073C6.44108 10.1125 5.32862 8.30579 5.2417 8.18913C5.15478 8.07538 4.53532 7.24978 4.53532 6.39811C4.53532 5.54353 4.98338 5.125 5.1403 4.95117C5.30013 4.77734 5.48734 4.7347 5.604 4.7347Z" fill="#858585"/>
</svg>
